<svg xml:space="preserve" id="my-svg" width="100%" xmlns="http://www.w3.org/2000/svg" xmlns:xlink="http://www.w3.org/1999/xlink" style="max-width: 1380px; background-color: white;" viewBox="10 -13 1380 1432" role="graphics-document document" aria-roledescription="sankey"><style>#my-svg{font-family:"trebuchet ms",verdana,arial,sans-serif;font-size:16px;fill:#333;}@keyframes edge-animation-frame{from{stroke-dashoffset:0;}}@keyframes dash{to{stroke-dashoffset:0;}}#my-svg .edge-animation-slow{stroke-dasharray:9,5!important;stroke-dashoffset:900;animation:dash 50s linear infinite;stroke-linecap:round;}#my-svg .edge-animation-fast{stroke-dasharray:9,5!important;stroke-dashoffset:900;animation:dash 20s linear infinite;stroke-linecap:round;}#my-svg .error-icon{fill:#552222;}#my-svg .error-text{fill:#552222;stroke:#552222;}#my-svg .edge-thickness-normal{stroke-width:1px;}#my-svg .edge-thickness-thick{stroke-width:3.5px;}#my-svg .edge-pattern-solid{stroke-dasharray:0;}#my-svg .edge-thickness-invisible{stroke-width:0;fill:none;}#my-svg .edge-pattern-dashed{stroke-dasharray:3;}#my-svg .edge-pattern-dotted{stroke-dasharray:2;}#my-svg .marker{fill:#333333;stroke:#333333;}#my-svg .marker.cross{stroke:#333333;}#my-svg svg{font-family:"trebuchet ms",verdana,arial,sans-serif;font-size:16px;}#my-svg p{margin:0;}#my-svg .label{font-family:"trebuchet ms",verdana,arial,sans-serif;}#my-svg .node-labels{font-family:"trebuchet ms",verdana,arial,sans-serif;}#my-svg .sankey-label-bg{stroke:#ECECFF;stroke-width:4px;stroke-linejoin:round;paint-order:stroke;}#my-svg .sankey-label-fg{fill:#333;}#my-svg .node rect{shape-rendering:crispEdges;}#my-svg .link{fill:none;stroke-opacity:0.5;mix-blend-mode:multiply;}#my-svg .node .neo-node{stroke:#9370DB;}#my-svg [data-look="neo"].node rect,#my-svg [data-look="neo"].cluster rect,#my-svg [data-look="neo"].node polygon{stroke:#9370DB;filter:drop-shadow(1px 2px 2px rgba(185, 185, 185, 1));}#my-svg [data-look="neo"].swimlane.cluster rect{filter:none;}#my-svg [data-look="neo"].node path{stroke:#9370DB;stroke-width:1px;}#my-svg [data-look="neo"].node .outer-path{filter:drop-shadow(1px 2px 2px rgba(185, 185, 185, 1));}#my-svg [data-look="neo"].node .neo-line path{stroke:#9370DB;filter:none;}#my-svg [data-look="neo"].node circle{stroke:#9370DB;filter:drop-shadow(1px 2px 2px rgba(185, 185, 185, 1));}#my-svg [data-look="neo"].node circle .state-start{fill:#000000;}#my-svg [data-look="neo"].icon-shape .icon{fill:#9370DB;filter:drop-shadow(1px 2px 2px rgba(185, 185, 185, 1));}#my-svg [data-look="neo"].icon-shape .icon-neo path{stroke:#9370DB;filter:drop-shadow(1px 2px 2px rgba(185, 185, 185, 1));}#my-svg :root{--mermaid-font-family:"trebuchet ms",verdana,arial,sans-serif;}</style><g/><g class="nodes"><g class="node" id="node-1" transform="translate(0,0)" x="0" y="0"><rect height="0" width="10" fill="#4e79a7"/></g><g class="node" id="node-2" transform="translate(1390,306.8082961323324)" x="1390" y="306.8082961323324"><rect height="0" width="10" fill="#f28e2c"/></g><g class="node" id="node-3" transform="translate(0,48.82758620689651)" x="0" y="48.82758620689651"><rect height="0" width="10" fill="#e15759"/></g><g class="node" id="node-4" transform="translate(1390,605.4078064652052)" x="1390" y="605.4078064652052"><rect height="0" width="10" fill="#76b7b2"/></g><g class="node" id="node-5" transform="translate(0,73.24137931034483)" x="0" y="73.24137931034483"><rect height="0" width="10" fill="#59a14f"/></g><g class="node" id="node-6" transform="translate(0,24.413793103448256)" x="0" y="24.413793103448256"><rect height="0" width="10" fill="#edc949"/></g><g class="node" id="node-7" transform="translate(0,830.0689655172409)" x="0" y="830.0689655172409"><rect height="0" width="10" fill="#af7aa1"/></g><g class="node" id="node-8" transform="translate(1390,979.7838252517504)" x="1390" y="979.7838252517504"><rect height="0" width="10" fill="#ff9da7"/></g><g class="node" id="node-9" transform="translate(0,97.65517241379308)" x="0" y="97.65517241379308"><rect height="0" width="10" fill="#9c755f"/></g><g class="node" id="node-10" transform="translate(0,122.06896551724137)" x="0" y="122.06896551724137"><rect height="0" width="10" fill="#bab0ab"/></g><g class="node" id="node-11" transform="translate(0,146.48275862068965)" x="0" y="146.48275862068965"><rect height="0" width="10" fill="#4e79a7"/></g><g class="node" id="node-12" transform="translate(0,244.13793103448276)" x="0" y="244.13793103448276"><rect height="0" width="10" fill="#f28e2c"/></g><g class="node" id="node-13" transform="translate(0,1074.2068965517237)" x="0" y="1074.2068965517237"><rect height="0" width="10" fill="#e15759"/></g><g class="node" id="node-14" transform="translate(1390,1157.983088424005)" x="1390" y="1157.983088424005"><rect height="0" width="10" fill="#76b7b2"/></g><g class="node" id="node-15" transform="translate(0,1245.1034482758623)" x="0" y="1245.1034482758623"><rect height="0" width="10" fill="#59a14f"/></g><g class="node" id="node-16" transform="translate(0,170.89655172413794)" x="0" y="170.89655172413794"><rect height="0" width="10" fill="#edc949"/></g><g class="node" id="node-17" transform="translate(0,878.8965517241375)" x="0" y="878.8965517241375"><rect height="0" width="10" fill="#af7aa1"/></g><g class="node" id="node-18" transform="translate(0,195.31034482758622)" x="0" y="195.31034482758622"><rect height="0" width="10" fill="#ff9da7"/></g><g class="node" id="node-19" transform="translate(0,219.72413793103448)" x="0" y="219.72413793103448"><rect height="0" width="10" fill="#9c755f"/></g><g class="node" id="node-20" transform="translate(0,341.7931034482758)" x="0" y="341.7931034482758"><rect height="0" width="10" fill="#bab0ab"/></g><g class="node" id="node-21" transform="translate(0,927.724137931034)" x="0" y="927.724137931034"><rect height="0" width="10" fill="#4e79a7"/></g><g class="node" id="node-22" transform="translate(0,317.37931034482756)" x="0" y="317.37931034482756"><rect height="0" width="10" fill="#f28e2c"/></g><g class="node" id="node-23" transform="translate(0,390.6206896551723)" x="0" y="390.6206896551723"><rect height="0" width="10" fill="#e15759"/></g><g class="node" id="node-24" transform="translate(0,366.20689655172407)" x="0" y="366.20689655172407"><rect height="0" width="10" fill="#76b7b2"/></g><g class="node" id="node-25" transform="translate(0,488.27586206896535)" x="0" y="488.27586206896535"><rect height="0" width="10" fill="#59a14f"/></g><g class="node" id="node-26" transform="translate(0,268.55172413793105)" x="0" y="268.55172413793105"><rect height="0" width="10" fill="#edc949"/></g><g class="node" id="node-27" transform="translate(0,952.1379310344822)" x="0" y="952.1379310344822"><rect height="0" width="10" fill="#af7aa1"/></g><g class="node" id="node-28" transform="translate(0,781.2413793103444)" x="0" y="781.2413793103444"><rect height="0" width="10" fill="#ff9da7"/></g><g class="node" id="node-29" transform="translate(0,976.5517241379305)" x="0" y="976.5517241379305"><rect height="0" width="10" fill="#9c755f"/></g><g class="node" id="node-30" transform="translate(0,561.5172413793101)" x="0" y="561.5172413793101"><rect height="0" width="10" fill="#bab0ab"/></g><g class="node" id="node-31" transform="translate(0,292.9655172413793)" x="0" y="292.9655172413793"><rect height="0" width="10" fill="#4e79a7"/></g><g class="node" id="node-32" transform="translate(0,415.0344827586206)" x="0" y="415.0344827586206"><rect height="0" width="10" fill="#f28e2c"/></g><g class="node" id="node-33" transform="translate(0,512.6896551724136)" x="0" y="512.6896551724136"><rect height="0" width="10" fill="#e15759"/></g><g class="node" id="node-34" transform="translate(0,585.9310344827584)" x="0" y="585.9310344827584"><rect height="0" width="10" fill="#76b7b2"/></g><g class="node" id="node-35" transform="translate(0,1025.379310344827)" x="0" y="1025.379310344827"><rect height="0" width="10" fill="#59a14f"/></g><g class="node" id="node-36" transform="translate(0,439.44827586206884)" x="0" y="439.44827586206884"><rect height="0" width="10" fill="#edc949"/></g><g class="node" id="node-37" transform="translate(0,463.8620689655171)" x="0" y="463.8620689655171"><rect height="0" width="10" fill="#af7aa1"/></g><g class="node" id="node-38" transform="translate(0,634.7586206896549)" x="0" y="634.7586206896549"><rect height="0" width="10" fill="#ff9da7"/></g><g class="node" id="node-39" transform="translate(0,683.5862068965514)" x="0" y="683.5862068965514"><rect height="0" width="10" fill="#9c755f"/></g><g class="node" id="node-40" transform="translate(0,1220.689655172414)" x="0" y="1220.689655172414"><rect height="0" width="10" fill="#bab0ab"/></g><g class="node" id="node-41" transform="translate(0,537.1034482758619)" x="0" y="537.1034482758619"><rect height="0" width="10" fill="#4e79a7"/></g><g class="node" id="node-42" transform="translate(0,1098.620689655172)" x="0" y="1098.620689655172"><rect height="0" width="10" fill="#f28e2c"/></g><g class="node" id="node-43" transform="translate(0,610.3448275862066)" x="0" y="610.3448275862066"><rect height="0" width="10" fill="#e15759"/></g><g class="node" id="node-44" transform="translate(0,1171.8620689655172)" x="0" y="1171.8620689655172"><rect height="0" width="10" fill="#76b7b2"/></g><g class="node" id="node-45" transform="translate(0,1147.4482758620688)" x="0" y="1147.4482758620688"><rect height="0" width="10" fill="#59a14f"/></g><g class="node" id="node-46" transform="translate(0,732.4137931034479)" x="0" y="732.4137931034479"><rect height="0" width="10" fill="#edc949"/></g><g class="node" id="node-47" transform="translate(0,805.6551724137927)" x="0" y="805.6551724137927"><rect height="0" width="10" fill="#af7aa1"/></g><g class="node" id="node-48" transform="translate(0,1269.5172413793107)" x="0" y="1269.5172413793107"><rect height="0" width="10" fill="#ff9da7"/></g><g class="node" id="node-49" transform="translate(0,1293.931034482759)" x="0" y="1293.931034482759"><rect height="0" width="10" fill="#9c755f"/></g><g class="node" id="node-50" transform="translate(0,1123.0344827586205)" x="0" y="1123.0344827586205"><rect height="0" width="10" fill="#bab0ab"/></g><g class="node" id="node-51" transform="translate(0,1196.2758620689656)" x="0" y="1196.2758620689656"><rect height="0" width="10" fill="#4e79a7"/></g><g class="node" id="node-52" transform="translate(0,707.9999999999997)" x="0" y="707.9999999999997"><rect height="0" width="10" fill="#f28e2c"/></g><g class="node" id="node-53" transform="translate(0,1000.9655172413787)" x="0" y="1000.9655172413787"><rect height="0" width="10" fill="#e15759"/></g><g class="node" id="node-54" transform="translate(0,1318.3448275862074)" x="0" y="1318.3448275862074"><rect height="0" width="10" fill="#76b7b2"/></g><g class="node" id="node-55" transform="translate(0,1367.1724137931042)" x="0" y="1367.1724137931042"><rect height="0" width="10" fill="#59a14f"/></g><g class="node" id="node-56" transform="translate(0,854.4827586206892)" x="0" y="854.4827586206892"><rect height="0" width="10" fill="#edc949"/></g><g class="node" id="node-57" transform="translate(0,1342.7586206896558)" x="0" y="1342.7586206896558"><rect height="0" width="10" fill="#af7aa1"/></g><g class="node" id="node-58" transform="translate(0,1391.5862068965525)" x="0" y="1391.5862068965525"><rect height="0" width="10" fill="#ff9da7"/></g><g class="node" id="node-59" transform="translate(0,903.3103448275857)" x="0" y="903.3103448275857"><rect height="0" width="10" fill="#9c755f"/></g><g class="node" id="node-60" transform="translate(0,1416.000000000001)" x="0" y="1416.000000000001"><rect height="0" width="10" fill="#bab0ab"/></g><g class="node" id="node-61" transform="translate(0,1049.7931034482754)" x="0" y="1049.7931034482754"><rect height="0" width="10" fill="#4e79a7"/></g><g class="node" id="node-62" transform="translate(0,756.8275862068962)" x="0" y="756.8275862068962"><rect height="0" width="10" fill="#f28e2c"/></g><g class="node" id="node-63" transform="translate(0,659.1724137931031)" x="0" y="659.1724137931031"><rect height="0" width="10" fill="#e15759"/></g></g><g class="node-labels" font-size="14"><text x="16" y="0" dy="0em" text-anchor="start">Computer Science (07276-C)
 · 0.2 ECTS</text><text x="1384" y="306.8082961323324" dy="0em" text-anchor="end">Database Foundations (12 ECTS)
 · 70.94 ECTS</text><text x="16" y="48.82758620689651" dy="0em" text-anchor="start">Databases (10906)
 · 5 ECTS</text><text x="1384" y="605.4078064652052" dy="0em" text-anchor="end">Advanced Data Management (12 ECTS)
 · 33.9 ECTS</text><text x="16" y="73.24137931034483" dy="0em" text-anchor="start">Databases (10906-A)
 · 10.91 ECTS</text><text x="16" y="24.413793103448256" dy="0em" text-anchor="start">Computer Lab (15920)
 · 0.14 ECTS</text><text x="16" y="830.0689655172409" dy="0em" text-anchor="start">Concurrent and Distributed Programming (17628)
 · 0.46 ECTS</text><text x="1384" y="979.7838252517504" dy="0em" text-anchor="end">Big Data Processing Platforms (9 ECTS)
 · 23.6 ECTS</text><text x="16" y="97.65517241379308" dy="0em" text-anchor="start">Information Systems T (28027)
 · 7.2 ECTS</text><text x="16" y="122.06896551724137" dy="0em" text-anchor="start">Computer Science for Environmental Sciences (28106)
 · 1 ECTS</text><text x="16" y="146.48275862068965" dy="0em" text-anchor="start">IT Systems T-1 (28652)
 · 6 ECTS</text><text x="16" y="244.13793103448276" dy="0em" text-anchor="start">Elements of Databases (28796)
 · 4 ECTS</text><text x="16" y="1074.2068965517237" dy="0em" text-anchor="start">Business Intelligence (30376)
 · 6 ECTS</text><text x="1384" y="1157.983088424005" dy="0em" text-anchor="end">Business Intelligence and Analytics (6 ECTS)
 · 7.42 ECTS</text><text x="16" y="1245.1034482758623" dy="0em" text-anchor="start">Computer Programming (37262)
 · 0.4 ECTS</text><text x="16" y="170.89655172413794" dy="0em" text-anchor="start">Basic and Laboratory Informatics (39176)
 · 0.83 ECTS</text><text x="16" y="878.8965517241375" dy="0em" text-anchor="start">INTRODUZIONE ALL'ANALISI DEI DATI (41588)
 · 0.38 ECTS</text><text x="16" y="195.31034482758622" dy="0em" text-anchor="start">Informatics (57828)
 · 0.23 ECTS</text><text x="16" y="219.72413793103448" dy="0em" text-anchor="start">Computer Science (69259)
 · 0.67 ECTS</text><text x="16" y="341.7931034482758" dy="0em" text-anchor="start">Data Bases (70155)
 · 6 ECTS</text><text x="16" y="927.724137931034" dy="0em" text-anchor="start">Distributed Systems M (73025)
 · 0.89 ECTS</text><text x="16" y="317.37931034482756" dy="0em" text-anchor="start">Informatic Tecnologies for Fashion (73273)
 · 0.38 ECTS</text><text x="16" y="390.6206896551723" dy="0em" text-anchor="start">Multimedia Technologies in Archaelogy (76011)
 · 0.55 ECTS</text><text x="16" y="366.20689655172407" dy="0em" text-anchor="start">Multimedia Data Management M (77933)
 · 1.5 ECTS</text><text x="16" y="488.27586206896535" dy="0em" text-anchor="start">Multimedia Data Management M (78096)
 · 1.85 ECTS</text><text x="16" y="268.55172413793105" dy="0em" text-anchor="start">Databases (79194)
 · 5 ECTS</text><text x="16" y="952.1379310344822" dy="0em" text-anchor="start">Internet of Things (81683)
 · 0.86 ECTS</text><text x="16" y="781.2413793103444" dy="0em" text-anchor="start">Big Data (81932)
 · 6 ECTS</text><text x="16" y="976.5517241379305" dy="0em" text-anchor="start">Scalable and Cloud Programming (81942)
 · 1.8 ECTS</text><text x="16" y="561.5172413793101" dy="0em" text-anchor="start">Informatic (82202)
 · 0.5 ECTS</text><text x="16" y="292.9655172413793" dy="0em" text-anchor="start">Informatic (82202-A)
 · 0.44 ECTS</text><text x="16" y="415.0344827586206" dy="0em" text-anchor="start">Advanced Database Systems (84339)
 · 6 ECTS</text><text x="16" y="512.6896551724136" dy="0em" text-anchor="start">Context-Aware Systems (84401)
 · 0.55 ECTS</text><text x="16" y="585.9310344827584" dy="0em" text-anchor="start">Database and Big Data Technologies M (84530)
 · 8 ECTS</text><text x="16" y="1025.379310344827" dy="0em" text-anchor="start">Infrastructures For Cloud Computing and Big Data M (84531)
 · 3.33 ECTS</text><text x="16" y="439.44827586206884" dy="0em" text-anchor="start">BASI DI DATI (90107)
 · 9 ECTS</text><text x="16" y="463.8620689655171" dy="0em" text-anchor="start">Networks, Security And Data Bases (91161)
 · 2.77 ECTS</text><text x="16" y="634.7586206896549" dy="0em" text-anchor="start">Multimedia Data Management (91269)
 · 1.29 ECTS</text><text x="16" y="683.5862068965514" dy="0em" text-anchor="start">Advanced Programming (93363)
 · 0.46 ECTS</text><text x="16" y="1220.689655172414" dy="0em" text-anchor="start">Iot And Big Data For Smart Agricultural Systems (93653)
 · 1.43 ECTS</text><text x="16" y="537.1034482758619" dy="0em" text-anchor="start">Design of Web Applications T (94442)
 · 1.5 ECTS</text><text x="16" y="1098.620689655172" dy="0em" text-anchor="start">Programming and Computer Architectures (95602)
 · 0.57 ECTS</text><text x="16" y="610.3448275862066" dy="0em" text-anchor="start">Database Systems (95611)
 · 5 ECTS</text><text x="16" y="1171.8620689655172" dy="0em" text-anchor="start">Software Engineering (95627)
 · 0.18 ECTS</text><text x="16" y="1147.4482758620688" dy="0em" text-anchor="start">Big Data and Cloud Platforms (95630)
 · 4.2 ECTS</text><text x="16" y="732.4137931034479" dy="0em" text-anchor="start">Machine Learning and Data Mining (95631)
 · 0.92 ECTS</text><text x="16" y="805.6551724137927" dy="0em" text-anchor="start">Machine Learning and Data Mining (95631-A)
 · 0.17 ECTS</text><text x="16" y="1269.5172413793107" dy="0em" text-anchor="start">Industry 4.0 (95639)
 · 0.29 ECTS</text><text x="16" y="1293.931034482759" dy="0em" text-anchor="start">Artificial Intelligence and Machine Learning for Business (95965)
 · 0.4 ECTS</text><text x="16" y="1123.0344827586205" dy="0em" text-anchor="start">Business Intelligence and Big Data M (96142)
 · 4.62 ECTS</text><text x="16" y="1196.2758620689656" dy="0em" text-anchor="start">Methods and Models for Data Analytics M (96143)
 · 0.9 ECTS</text><text x="16" y="707.9999999999997" dy="0em" text-anchor="start">Information Systems and Database Management (96793)
 · 5.33 ECTS</text><text x="16" y="1000.9655172413787" dy="0em" text-anchor="start">Business Analytics (98671)
 · 1.75 ECTS</text><text x="16" y="1318.3448275862074" dy="0em" text-anchor="start">Python Coding and Data Science (98735)
 · 0.63 ECTS</text><text x="16" y="1367.1724137931042" dy="0em" text-anchor="start">Software Architecture and Platforms (B0010)
 · 0.25 ECTS</text><text x="16" y="854.4827586206892" dy="0em" text-anchor="start">Programming Laboratory (B0063)
 · 0.2 ECTS</text><text x="16" y="1342.7586206896558" dy="0em" text-anchor="start">PIATTAFORME PER LA TRASFORMAZIONE DIGITALE (B0074)
 · 1 ECTS</text><text x="16" y="1391.5862068965525" dy="0em" text-anchor="start">ARTIFICIAL INTELLIGENCE, BLOCKCHAIN E CRIPTOVALUTE NELLO SVILUPPO SOFTWARE (B1459)
 · 0.75 ECTS</text><text x="16" y="903.3103448275857" dy="0em" text-anchor="start">Machine Learning and Data Mining M (B2125)
 · 1.33 ECTS</text><text x="16" y="1416.000000000001" dy="0em" text-anchor="start">Big Data Analytics and Text Mining (B2133)
 · 0.96 ECTS</text><text x="16" y="1049.7931034482754" dy="0em" text-anchor="start">Interaction Media Design (B5059)
 · 0.29 ECTS</text><text x="16" y="756.8275862068962" dy="0em" text-anchor="start">Computational Management of Data (B8105)
 · 1.5 ECTS</text><text x="16" y="659.1724137931031" dy="0em" text-anchor="start">INFORMATICA (B8159)
 · 1.14 ECTS</text></g><g class="links" fill="none" stroke-opacity="0.5"><g class="link" style="mix-blend-mode: multiply;"><path d="M10,0C700,0,700,306.8082961323324,1390,306.8082961323324" stroke="#4e79a7" stroke-width="1"/></g><g class="link" style="mix-blend-mode: multiply;"><path d="M10,48.82758620689651C700,48.82758620689651,700,306.8082961323324,1390,306.8082961323324" stroke="#e15759" stroke-width="1"/></g><g class="link" style="mix-blend-mode: multiply;"><path d="M10,48.82758620689651C700,48.82758620689651,700,605.4078064652052,1390,605.4078064652052" stroke="#e15759" stroke-width="1"/></g><g class="link" style="mix-blend-mode: multiply;"><path d="M10,73.24137931034483C700,73.24137931034483,700,306.8082961323324,1390,306.8082961323324" stroke="#59a14f" stroke-width="1"/></g><g class="link" style="mix-blend-mode: multiply;"><path d="M10,73.24137931034483C700,73.24137931034483,700,605.4078064652052,1390,605.4078064652052" stroke="#59a14f" stroke-width="1"/></g><g class="link" style="mix-blend-mode: multiply;"><path d="M10,24.413793103448256C700,24.413793103448256,700,306.8082961323324,1390,306.8082961323324" stroke="#edc949" stroke-width="1"/></g><g class="link" style="mix-blend-mode: multiply;"><path d="M10,830.0689655172409C700,830.0689655172409,700,979.7838252517504,1390,979.7838252517504" stroke="#af7aa1" stroke-width="1"/></g><g class="link" style="mix-blend-mode: multiply;"><path d="M10,97.65517241379308C700,97.65517241379308,700,306.8082961323324,1390,306.8082961323324" stroke="#9c755f" stroke-width="1"/></g><g class="link" style="mix-blend-mode: multiply;"><path d="M10,122.06896551724137C700,122.06896551724137,700,306.8082961323324,1390,306.8082961323324" stroke="#bab0ab" stroke-width="1"/></g><g class="link" style="mix-blend-mode: multiply;"><path d="M10,146.48275862068965C700,146.48275862068965,700,306.8082961323324,1390,306.8082961323324" stroke="#4e79a7" stroke-width="1"/></g><g class="link" style="mix-blend-mode: multiply;"><path d="M10,244.13793103448276C700,244.13793103448276,700,605.4078064652052,1390,605.4078064652052" stroke="#f28e2c" stroke-width="1"/></g><g class="link" style="mix-blend-mode: multiply;"><path d="M10,244.13793103448276C700,244.13793103448276,700,306.8082961323324,1390,306.8082961323324" stroke="#f28e2c" stroke-width="1"/></g><g class="link" style="mix-blend-mode: multiply;"><path d="M10,1074.2068965517237C700,1074.2068965517237,700,1157.983088424005,1390,1157.983088424005" stroke="#e15759" stroke-width="1"/></g><g class="link" style="mix-blend-mode: multiply;"><path d="M10,1074.2068965517237C700,1074.2068965517237,700,605.4078064652052,1390,605.4078064652052" stroke="#e15759" stroke-width="1"/></g><g class="link" style="mix-blend-mode: multiply;"><path d="M10,1245.1034482758623C700,1245.1034482758623,700,1157.983088424005,1390,1157.983088424005" stroke="#59a14f" stroke-width="1"/></g><g class="link" style="mix-blend-mode: multiply;"><path d="M10,170.89655172413794C700,170.89655172413794,700,306.8082961323324,1390,306.8082961323324" stroke="#edc949" stroke-width="1"/></g><g class="link" style="mix-blend-mode: multiply;"><path d="M10,878.8965517241375C700,878.8965517241375,700,979.7838252517504,1390,979.7838252517504" stroke="#af7aa1" stroke-width="1"/></g><g class="link" style="mix-blend-mode: multiply;"><path d="M10,195.31034482758622C700,195.31034482758622,700,306.8082961323324,1390,306.8082961323324" stroke="#ff9da7" stroke-width="1"/></g><g class="link" style="mix-blend-mode: multiply;"><path d="M10,219.72413793103448C700,219.72413793103448,700,306.8082961323324,1390,306.8082961323324" stroke="#9c755f" stroke-width="1"/></g><g class="link" style="mix-blend-mode: multiply;"><path d="M10,341.7931034482758C700,341.7931034482758,700,306.8082961323324,1390,306.8082961323324" stroke="#bab0ab" stroke-width="1"/></g><g class="link" style="mix-blend-mode: multiply;"><path d="M10,341.7931034482758C700,341.7931034482758,700,979.7838252517504,1390,979.7838252517504" stroke="#bab0ab" stroke-width="1"/></g><g class="link" style="mix-blend-mode: multiply;"><path d="M10,341.7931034482758C700,341.7931034482758,700,605.4078064652052,1390,605.4078064652052" stroke="#bab0ab" stroke-width="1"/></g><g class="link" style="mix-blend-mode: multiply;"><path d="M10,927.724137931034C700,927.724137931034,700,979.7838252517504,1390,979.7838252517504" stroke="#4e79a7" stroke-width="1"/></g><g class="link" style="mix-blend-mode: multiply;"><path d="M10,317.37931034482756C700,317.37931034482756,700,605.4078064652052,1390,605.4078064652052" stroke="#f28e2c" stroke-width="1"/></g><g class="link" style="mix-blend-mode: multiply;"><path d="M10,390.6206896551723C700,390.6206896551723,700,605.4078064652052,1390,605.4078064652052" stroke="#e15759" stroke-width="1"/></g><g class="link" style="mix-blend-mode: multiply;"><path d="M10,366.20689655172407C700,366.20689655172407,700,605.4078064652052,1390,605.4078064652052" stroke="#76b7b2" stroke-width="1"/></g><g class="link" style="mix-blend-mode: multiply;"><path d="M10,366.20689655172407C700,366.20689655172407,700,306.8082961323324,1390,306.8082961323324" stroke="#76b7b2" stroke-width="1"/></g><g class="link" style="mix-blend-mode: multiply;"><path d="M10,488.27586206896535C700,488.27586206896535,700,605.4078064652052,1390,605.4078064652052" stroke="#59a14f" stroke-width="1"/></g><g class="link" style="mix-blend-mode: multiply;"><path d="M10,268.55172413793105C700,268.55172413793105,700,306.8082961323324,1390,306.8082961323324" stroke="#edc949" stroke-width="1"/></g><g class="link" style="mix-blend-mode: multiply;"><path d="M10,268.55172413793105C700,268.55172413793105,700,605.4078064652052,1390,605.4078064652052" stroke="#edc949" stroke-width="1"/></g><g class="link" style="mix-blend-mode: multiply;"><path d="M10,952.1379310344822C700,952.1379310344822,700,979.7838252517504,1390,979.7838252517504" stroke="#af7aa1" stroke-width="1"/></g><g class="link" style="mix-blend-mode: multiply;"><path d="M10,781.2413793103444C700,781.2413793103444,700,979.7838252517504,1390,979.7838252517504" stroke="#ff9da7" stroke-width="1"/></g><g class="link" style="mix-blend-mode: multiply;"><path d="M10,781.2413793103444C700,781.2413793103444,700,605.4078064652052,1390,605.4078064652052" stroke="#ff9da7" stroke-width="1"/></g><g class="link" style="mix-blend-mode: multiply;"><path d="M10,781.2413793103444C700,781.2413793103444,700,306.8082961323324,1390,306.8082961323324" stroke="#ff9da7" stroke-width="1"/></g><g class="link" style="mix-blend-mode: multiply;"><path d="M10,976.5517241379305C700,976.5517241379305,700,979.7838252517504,1390,979.7838252517504" stroke="#9c755f" stroke-width="1"/></g><g class="link" style="mix-blend-mode: multiply;"><path d="M10,561.5172413793101C700,561.5172413793101,700,306.8082961323324,1390,306.8082961323324" stroke="#bab0ab" stroke-width="1"/></g><g class="link" style="mix-blend-mode: multiply;"><path d="M10,561.5172413793101C700,561.5172413793101,700,979.7838252517504,1390,979.7838252517504" stroke="#bab0ab" stroke-width="1"/></g><g class="link" style="mix-blend-mode: multiply;"><path d="M10,292.9655172413793C700,292.9655172413793,700,306.8082961323324,1390,306.8082961323324" stroke="#4e79a7" stroke-width="1"/></g><g class="link" style="mix-blend-mode: multiply;"><path d="M10,415.0344827586206C700,415.0344827586206,700,306.8082961323324,1390,306.8082961323324" stroke="#f28e2c" stroke-width="1"/></g><g class="link" style="mix-blend-mode: multiply;"><path d="M10,415.0344827586206C700,415.0344827586206,700,605.4078064652052,1390,605.4078064652052" stroke="#f28e2c" stroke-width="1"/></g><g class="link" style="mix-blend-mode: multiply;"><path d="M10,512.6896551724136C700,512.6896551724136,700,605.4078064652052,1390,605.4078064652052" stroke="#e15759" stroke-width="1"/></g><g class="link" style="mix-blend-mode: multiply;"><path d="M10,585.9310344827584C700,585.9310344827584,700,306.8082961323324,1390,306.8082961323324" stroke="#76b7b2" stroke-width="1"/></g><g class="link" style="mix-blend-mode: multiply;"><path d="M10,585.9310344827584C700,585.9310344827584,700,605.4078064652052,1390,605.4078064652052" stroke="#76b7b2" stroke-width="1"/></g><g class="link" style="mix-blend-mode: multiply;"><path d="M10,585.9310344827584C700,585.9310344827584,700,979.7838252517504,1390,979.7838252517504" stroke="#76b7b2" stroke-width="1"/></g><g class="link" style="mix-blend-mode: multiply;"><path d="M10,1025.379310344827C700,1025.379310344827,700,979.7838252517504,1390,979.7838252517504" stroke="#59a14f" stroke-width="1"/></g><g class="link" style="mix-blend-mode: multiply;"><path d="M10,1025.379310344827C700,1025.379310344827,700,605.4078064652052,1390,605.4078064652052" stroke="#59a14f" stroke-width="1"/></g><g class="link" style="mix-blend-mode: multiply;"><path d="M10,439.44827586206884C700,439.44827586206884,700,306.8082961323324,1390,306.8082961323324" stroke="#edc949" stroke-width="1"/></g><g class="link" style="mix-blend-mode: multiply;"><path d="M10,463.8620689655171C700,463.8620689655171,700,306.8082961323324,1390,306.8082961323324" stroke="#af7aa1" stroke-width="1"/></g><g class="link" style="mix-blend-mode: multiply;"><path d="M10,634.7586206896549C700,634.7586206896549,700,605.4078064652052,1390,605.4078064652052" stroke="#ff9da7" stroke-width="1"/></g><g class="link" style="mix-blend-mode: multiply;"><path d="M10,683.5862068965514C700,683.5862068965514,700,605.4078064652052,1390,605.4078064652052" stroke="#9c755f" stroke-width="1"/></g><g class="link" style="mix-blend-mode: multiply;"><path d="M10,1220.689655172414C700,1220.689655172414,700,979.7838252517504,1390,979.7838252517504" stroke="#bab0ab" stroke-width="1"/></g><g class="link" style="mix-blend-mode: multiply;"><path d="M10,1220.689655172414C700,1220.689655172414,700,1157.983088424005,1390,1157.983088424005" stroke="#bab0ab" stroke-width="1"/></g><g class="link" style="mix-blend-mode: multiply;"><path d="M10,537.1034482758619C700,537.1034482758619,700,306.8082961323324,1390,306.8082961323324" stroke="#4e79a7" stroke-width="1"/></g><g class="link" style="mix-blend-mode: multiply;"><path d="M10,1098.620689655172C700,1098.620689655172,700,979.7838252517504,1390,979.7838252517504" stroke="#f28e2c" stroke-width="1"/></g><g class="link" style="mix-blend-mode: multiply;"><path d="M10,610.3448275862066C700,610.3448275862066,700,306.8082961323324,1390,306.8082961323324" stroke="#e15759" stroke-width="1"/></g><g class="link" style="mix-blend-mode: multiply;"><path d="M10,610.3448275862066C700,610.3448275862066,700,605.4078064652052,1390,605.4078064652052" stroke="#e15759" stroke-width="1"/></g><g class="link" style="mix-blend-mode: multiply;"><path d="M10,1171.8620689655172C700,1171.8620689655172,700,979.7838252517504,1390,979.7838252517504" stroke="#76b7b2" stroke-width="1"/></g><g class="link" style="mix-blend-mode: multiply;"><path d="M10,1147.4482758620688C700,1147.4482758620688,700,979.7838252517504,1390,979.7838252517504" stroke="#59a14f" stroke-width="1"/></g><g class="link" style="mix-blend-mode: multiply;"><path d="M10,1147.4482758620688C700,1147.4482758620688,700,605.4078064652052,1390,605.4078064652052" stroke="#59a14f" stroke-width="1"/></g><g class="link" style="mix-blend-mode: multiply;"><path d="M10,732.4137931034479C700,732.4137931034479,700,605.4078064652052,1390,605.4078064652052" stroke="#edc949" stroke-width="1"/></g><g class="link" style="mix-blend-mode: multiply;"><path d="M10,805.6551724137927C700,805.6551724137927,700,605.4078064652052,1390,605.4078064652052" stroke="#af7aa1" stroke-width="1"/></g><g class="link" style="mix-blend-mode: multiply;"><path d="M10,1269.5172413793107C700,1269.5172413793107,700,979.7838252517504,1390,979.7838252517504" stroke="#ff9da7" stroke-width="1"/></g><g class="link" style="mix-blend-mode: multiply;"><path d="M10,1293.931034482759C700,1293.931034482759,700,1157.983088424005,1390,1157.983088424005" stroke="#9c755f" stroke-width="1"/></g><g class="link" style="mix-blend-mode: multiply;"><path d="M10,1123.0344827586205C700,1123.0344827586205,700,605.4078064652052,1390,605.4078064652052" stroke="#bab0ab" stroke-width="1"/></g><g class="link" style="mix-blend-mode: multiply;"><path d="M10,1123.0344827586205C700,1123.0344827586205,700,979.7838252517504,1390,979.7838252517504" stroke="#bab0ab" stroke-width="1"/></g><g class="link" style="mix-blend-mode: multiply;"><path d="M10,1123.0344827586205C700,1123.0344827586205,700,1157.983088424005,1390,1157.983088424005" stroke="#bab0ab" stroke-width="1"/></g><g class="link" style="mix-blend-mode: multiply;"><path d="M10,1196.2758620689656C700,1196.2758620689656,700,1157.983088424005,1390,1157.983088424005" stroke="#4e79a7" stroke-width="1"/></g><g class="link" style="mix-blend-mode: multiply;"><path d="M10,1196.2758620689656C700,1196.2758620689656,700,979.7838252517504,1390,979.7838252517504" stroke="#4e79a7" stroke-width="1"/></g><g class="link" style="mix-blend-mode: multiply;"><path d="M10,1196.2758620689656C700,1196.2758620689656,700,605.4078064652052,1390,605.4078064652052" stroke="#4e79a7" stroke-width="1"/></g><g class="link" style="mix-blend-mode: multiply;"><path d="M10,707.9999999999997C700,707.9999999999997,700,306.8082961323324,1390,306.8082961323324" stroke="#f28e2c" stroke-width="1"/></g><g class="link" style="mix-blend-mode: multiply;"><path d="M10,707.9999999999997C700,707.9999999999997,700,605.4078064652052,1390,605.4078064652052" stroke="#f28e2c" stroke-width="1"/></g><g class="link" style="mix-blend-mode: multiply;"><path d="M10,1000.9655172413787C700,1000.9655172413787,700,1157.983088424005,1390,1157.983088424005" stroke="#e15759" stroke-width="1"/></g><g class="link" style="mix-blend-mode: multiply;"><path d="M10,1000.9655172413787C700,1000.9655172413787,700,306.8082961323324,1390,306.8082961323324" stroke="#e15759" stroke-width="1"/></g><g class="link" style="mix-blend-mode: multiply;"><path d="M10,1000.9655172413787C700,1000.9655172413787,700,979.7838252517504,1390,979.7838252517504" stroke="#e15759" stroke-width="1"/></g><g class="link" style="mix-blend-mode: multiply;"><path d="M10,1000.9655172413787C700,1000.9655172413787,700,605.4078064652052,1390,605.4078064652052" stroke="#e15759" stroke-width="1"/></g><g class="link" style="mix-blend-mode: multiply;"><path d="M10,1318.3448275862074C700,1318.3448275862074,700,979.7838252517504,1390,979.7838252517504" stroke="#76b7b2" stroke-width="1"/></g><g class="link" style="mix-blend-mode: multiply;"><path d="M10,1367.1724137931042C700,1367.1724137931042,700,979.7838252517504,1390,979.7838252517504" stroke="#59a14f" stroke-width="1"/></g><g class="link" style="mix-blend-mode: multiply;"><path d="M10,854.4827586206892C700,854.4827586206892,700,605.4078064652052,1390,605.4078064652052" stroke="#edc949" stroke-width="1"/></g><g class="link" style="mix-blend-mode: multiply;"><path d="M10,1342.7586206896558C700,1342.7586206896558,700,1157.983088424005,1390,1157.983088424005" stroke="#af7aa1" stroke-width="1"/></g><g class="link" style="mix-blend-mode: multiply;"><path d="M10,1391.5862068965525C700,1391.5862068965525,700,1157.983088424005,1390,1157.983088424005" stroke="#ff9da7" stroke-width="1"/></g><g class="link" style="mix-blend-mode: multiply;"><path d="M10,903.3103448275857C700,903.3103448275857,700,605.4078064652052,1390,605.4078064652052" stroke="#9c755f" stroke-width="1"/></g><g class="link" style="mix-blend-mode: multiply;"><path d="M10,1416.000000000001C700,1416.000000000001,700,979.7838252517504,1390,979.7838252517504" stroke="#bab0ab" stroke-width="1"/></g><g class="link" style="mix-blend-mode: multiply;"><path d="M10,1049.7931034482754C700,1049.7931034482754,700,605.4078064652052,1390,605.4078064652052" stroke="#4e79a7" stroke-width="1"/></g><g class="link" style="mix-blend-mode: multiply;"><path d="M10,756.8275862068962C700,756.8275862068962,700,605.4078064652052,1390,605.4078064652052" stroke="#f28e2c" stroke-width="1"/></g><g class="link" style="mix-blend-mode: multiply;"><path d="M10,756.8275862068962C700,756.8275862068962,700,306.8082961323324,1390,306.8082961323324" stroke="#f28e2c" stroke-width="1"/></g><g class="link" style="mix-blend-mode: multiply;"><path d="M10,659.1724137931031C700,659.1724137931031,700,306.8082961323324,1390,306.8082961323324" stroke="#e15759" stroke-width="1"/></g></g></svg>