<svg xml:space="preserve" id="my-svg" width="100%" xmlns="http://www.w3.org/2000/svg" xmlns:xlink="http://www.w3.org/1999/xlink" style="max-width: 1380px; background-color: white;" viewBox="10 -13 1380 1216" role="graphics-document document" aria-roledescription="sankey"><style>#my-svg{font-family:"trebuchet ms",verdana,arial,sans-serif;font-size:16px;fill:#333;}@keyframes edge-animation-frame{from{stroke-dashoffset:0;}}@keyframes dash{to{stroke-dashoffset:0;}}#my-svg .edge-animation-slow{stroke-dasharray:9,5!important;stroke-dashoffset:900;animation:dash 50s linear infinite;stroke-linecap:round;}#my-svg .edge-animation-fast{stroke-dasharray:9,5!important;stroke-dashoffset:900;animation:dash 20s linear infinite;stroke-linecap:round;}#my-svg .error-icon{fill:#552222;}#my-svg .error-text{fill:#552222;stroke:#552222;}#my-svg .edge-thickness-normal{stroke-width:1px;}#my-svg .edge-thickness-thick{stroke-width:3.5px;}#my-svg .edge-pattern-solid{stroke-dasharray:0;}#my-svg .edge-thickness-invisible{stroke-width:0;fill:none;}#my-svg .edge-pattern-dashed{stroke-dasharray:3;}#my-svg .edge-pattern-dotted{stroke-dasharray:2;}#my-svg .marker{fill:#333333;stroke:#333333;}#my-svg .marker.cross{stroke:#333333;}#my-svg svg{font-family:"trebuchet ms",verdana,arial,sans-serif;font-size:16px;}#my-svg p{margin:0;}#my-svg .label{font-family:"trebuchet ms",verdana,arial,sans-serif;}#my-svg .node-labels{font-family:"trebuchet ms",verdana,arial,sans-serif;}#my-svg .sankey-label-bg{stroke:#ECECFF;stroke-width:4px;stroke-linejoin:round;paint-order:stroke;}#my-svg .sankey-label-fg{fill:#333;}#my-svg .node rect{shape-rendering:crispEdges;}#my-svg .link{fill:none;stroke-opacity:0.5;mix-blend-mode:multiply;}#my-svg .node .neo-node{stroke:#9370DB;}#my-svg [data-look="neo"].node rect,#my-svg [data-look="neo"].cluster rect,#my-svg [data-look="neo"].node polygon{stroke:#9370DB;filter:drop-shadow(1px 2px 2px rgba(185, 185, 185, 1));}#my-svg [data-look="neo"].swimlane.cluster rect{filter:none;}#my-svg [data-look="neo"].node path{stroke:#9370DB;stroke-width:1px;}#my-svg [data-look="neo"].node .outer-path{filter:drop-shadow(1px 2px 2px rgba(185, 185, 185, 1));}#my-svg [data-look="neo"].node .neo-line path{stroke:#9370DB;filter:none;}#my-svg [data-look="neo"].node circle{stroke:#9370DB;filter:drop-shadow(1px 2px 2px rgba(185, 185, 185, 1));}#my-svg [data-look="neo"].node circle .state-start{fill:#000000;}#my-svg [data-look="neo"].icon-shape .icon{fill:#9370DB;filter:drop-shadow(1px 2px 2px rgba(185, 185, 185, 1));}#my-svg [data-look="neo"].icon-shape .icon-neo path{stroke:#9370DB;filter:drop-shadow(1px 2px 2px rgba(185, 185, 185, 1));}#my-svg :root{--mermaid-font-family:"trebuchet ms",verdana,arial,sans-serif;}</style><g/><g class="nodes"><g class="node" id="node-1" transform="translate(0,6.821210263296962e-13)" x="0" y="6.821210263296962e-13"><rect height="0" width="10" fill="#4e79a7"/></g><g class="node" id="node-2" transform="translate(1390,649.9200231869428)" x="1390" y="649.9200231869428"><rect height="0" width="10" fill="#f28e2c"/></g><g class="node" id="node-3" transform="translate(0,24.48979591836803)" x="0" y="24.48979591836803"><rect height="0" width="10" fill="#e15759"/></g><g class="node" id="node-4" transform="translate(0,48.97959183673538)" x="0" y="48.97959183673538"><rect height="0" width="10" fill="#76b7b2"/></g><g class="node" id="node-5" transform="translate(0,73.46938775510273)" x="0" y="73.46938775510273"><rect height="0" width="10" fill="#59a14f"/></g><g class="node" id="node-6" transform="translate(0,97.95918367347008)" x="0" y="97.95918367347008"><rect height="0" width="10" fill="#edc949"/></g><g class="node" id="node-7" transform="translate(0,122.44897959183743)" x="0" y="122.44897959183743"><rect height="0" width="10" fill="#af7aa1"/></g><g class="node" id="node-8" transform="translate(0,146.93877551020478)" x="0" y="146.93877551020478"><rect height="0" width="10" fill="#ff9da7"/></g><g class="node" id="node-9" transform="translate(0,171.42857142857213)" x="0" y="171.42857142857213"><rect height="0" width="10" fill="#9c755f"/></g><g class="node" id="node-10" transform="translate(0,195.91836734693948)" x="0" y="195.91836734693948"><rect height="0" width="10" fill="#bab0ab"/></g><g class="node" id="node-11" transform="translate(0,220.40816326530683)" x="0" y="220.40816326530683"><rect height="0" width="10" fill="#4e79a7"/></g><g class="node" id="node-12" transform="translate(0,244.89795918367417)" x="0" y="244.89795918367417"><rect height="0" width="10" fill="#f28e2c"/></g><g class="node" id="node-13" transform="translate(0,269.3877551020415)" x="0" y="269.3877551020415"><rect height="0" width="10" fill="#e15759"/></g><g class="node" id="node-14" transform="translate(0,293.8775510204089)" x="0" y="293.8775510204089"><rect height="0" width="10" fill="#76b7b2"/></g><g class="node" id="node-15" transform="translate(0,318.3673469387762)" x="0" y="318.3673469387762"><rect height="0" width="10" fill="#59a14f"/></g><g class="node" id="node-16" transform="translate(0,342.8571428571436)" x="0" y="342.8571428571436"><rect height="0" width="10" fill="#edc949"/></g><g class="node" id="node-17" transform="translate(0,367.3469387755109)" x="0" y="367.3469387755109"><rect height="0" width="10" fill="#af7aa1"/></g><g class="node" id="node-18" transform="translate(0,391.83673469387827)" x="0" y="391.83673469387827"><rect height="0" width="10" fill="#ff9da7"/></g><g class="node" id="node-19" transform="translate(0,416.3265306122456)" x="0" y="416.3265306122456"><rect height="0" width="10" fill="#9c755f"/></g><g class="node" id="node-20" transform="translate(0,440.81632653061297)" x="0" y="440.81632653061297"><rect height="0" width="10" fill="#bab0ab"/></g><g class="node" id="node-21" transform="translate(0,465.3061224489803)" x="0" y="465.3061224489803"><rect height="0" width="10" fill="#4e79a7"/></g><g class="node" id="node-22" transform="translate(0,489.79591836734767)" x="0" y="489.79591836734767"><rect height="0" width="10" fill="#f28e2c"/></g><g class="node" id="node-23" transform="translate(0,514.285714285715)" x="0" y="514.285714285715"><rect height="0" width="10" fill="#e15759"/></g><g class="node" id="node-24" transform="translate(0,538.7755102040824)" x="0" y="538.7755102040824"><rect height="0" width="10" fill="#76b7b2"/></g><g class="node" id="node-25" transform="translate(0,563.2653061224497)" x="0" y="563.2653061224497"><rect height="0" width="10" fill="#59a14f"/></g><g class="node" id="node-26" transform="translate(0,587.7551020408171)" x="0" y="587.7551020408171"><rect height="0" width="10" fill="#edc949"/></g><g class="node" id="node-27" transform="translate(0,612.2448979591844)" x="0" y="612.2448979591844"><rect height="0" width="10" fill="#af7aa1"/></g><g class="node" id="node-28" transform="translate(0,636.7346938775518)" x="0" y="636.7346938775518"><rect height="0" width="10" fill="#ff9da7"/></g><g class="node" id="node-29" transform="translate(0,661.2244897959191)" x="0" y="661.2244897959191"><rect height="0" width="10" fill="#9c755f"/></g><g class="node" id="node-30" transform="translate(0,685.7142857142865)" x="0" y="685.7142857142865"><rect height="0" width="10" fill="#bab0ab"/></g><g class="node" id="node-31" transform="translate(0,710.2040816326538)" x="0" y="710.2040816326538"><rect height="0" width="10" fill="#4e79a7"/></g><g class="node" id="node-32" transform="translate(0,734.6938775510212)" x="0" y="734.6938775510212"><rect height="0" width="10" fill="#f28e2c"/></g><g class="node" id="node-33" transform="translate(0,759.1836734693885)" x="0" y="759.1836734693885"><rect height="0" width="10" fill="#e15759"/></g><g class="node" id="node-34" transform="translate(0,783.6734693877559)" x="0" y="783.6734693877559"><rect height="0" width="10" fill="#76b7b2"/></g><g class="node" id="node-35" transform="translate(0,808.1632653061232)" x="0" y="808.1632653061232"><rect height="0" width="10" fill="#59a14f"/></g><g class="node" id="node-36" transform="translate(0,832.6530612244906)" x="0" y="832.6530612244906"><rect height="0" width="10" fill="#edc949"/></g><g class="node" id="node-37" transform="translate(0,857.1428571428579)" x="0" y="857.1428571428579"><rect height="0" width="10" fill="#af7aa1"/></g><g class="node" id="node-38" transform="translate(0,881.6326530612253)" x="0" y="881.6326530612253"><rect height="0" width="10" fill="#ff9da7"/></g><g class="node" id="node-39" transform="translate(0,906.1224489795926)" x="0" y="906.1224489795926"><rect height="0" width="10" fill="#9c755f"/></g><g class="node" id="node-40" transform="translate(0,930.61224489796)" x="0" y="930.61224489796"><rect height="0" width="10" fill="#bab0ab"/></g><g class="node" id="node-41" transform="translate(0,955.1020408163273)" x="0" y="955.1020408163273"><rect height="0" width="10" fill="#4e79a7"/></g><g class="node" id="node-42" transform="translate(0,979.5918367346947)" x="0" y="979.5918367346947"><rect height="0" width="10" fill="#f28e2c"/></g><g class="node" id="node-43" transform="translate(0,1004.081632653062)" x="0" y="1004.081632653062"><rect height="0" width="10" fill="#e15759"/></g><g class="node" id="node-44" transform="translate(0,1028.5714285714294)" x="0" y="1028.5714285714294"><rect height="0" width="10" fill="#76b7b2"/></g><g class="node" id="node-45" transform="translate(0,1053.0612244897966)" x="0" y="1053.0612244897966"><rect height="0" width="10" fill="#59a14f"/></g><g class="node" id="node-46" transform="translate(0,1077.5510204081638)" x="0" y="1077.5510204081638"><rect height="0" width="10" fill="#edc949"/></g><g class="node" id="node-47" transform="translate(0,1102.040816326531)" x="0" y="1102.040816326531"><rect height="0" width="10" fill="#af7aa1"/></g><g class="node" id="node-48" transform="translate(0,1126.5306122448983)" x="0" y="1126.5306122448983"><rect height="0" width="10" fill="#ff9da7"/></g><g class="node" id="node-49" transform="translate(0,1151.0204081632655)" x="0" y="1151.0204081632655"><rect height="0" width="10" fill="#9c755f"/></g><g class="node" id="node-50" transform="translate(0,1175.5102040816328)" x="0" y="1175.5102040816328"><rect height="0" width="10" fill="#bab0ab"/></g><g class="node" id="node-51" transform="translate(0,1200)" x="0" y="1200"><rect height="0" width="10" fill="#4e79a7"/></g></g><g class="node-labels" font-size="14"><text x="16" y="6.821210263296962e-13" dy="0em" text-anchor="start">Humanistic IT (27311)
 · 1.71 ECTS</text><text x="1384" y="649.9200231869428" dy="0em" text-anchor="end">Semantic Web and Knowledge Engineering (12 ECTS)
 · 65.91 ECTS</text><text x="16" y="24.48979591836803" dy="0em" text-anchor="start">Humanistic IT (27311-A)
 · 0.5 ECTS</text><text x="16" y="48.97959183673538" dy="0em" text-anchor="start">Computer Science for Environmental Sciences (28106)
 · 0.5 ECTS</text><text x="16" y="73.46938775510273" dy="0em" text-anchor="start">Web Technologies T (28659)
 · 0.9 ECTS</text><text x="16" y="97.95918367347008" dy="0em" text-anchor="start">Elements of Databases (28796)
 · 1 ECTS</text><text x="16" y="122.44897959183743" dy="0em" text-anchor="start">Computer Programming (37262)
 · 0.4 ECTS</text><text x="16" y="146.93877551020478" dy="0em" text-anchor="start">Basic and Laboratory Informatics (39176)
 · 0.17 ECTS</text><text x="16" y="171.42857142857213" dy="0em" text-anchor="start">Data Mining (40720)
 · 0.19 ECTS</text><text x="16" y="195.91836734693948" dy="0em" text-anchor="start">Web-related Technologies (41731)
 · 0.86 ECTS</text><text x="16" y="220.40816326530683" dy="0em" text-anchor="start">Web-related Technologies (41731-A)
 · 3 ECTS</text><text x="16" y="244.89795918367417" dy="0em" text-anchor="start">Semantic Web (42500)
 · 5.46 ECTS</text><text x="16" y="269.3877551020415" dy="0em" text-anchor="start">Foundations Of Artificial Intelligence T (72938)
 · 0.73 ECTS</text><text x="16" y="293.8775510204089" dy="0em" text-anchor="start">Informatic Tecnologies for Fashion (73273)
 · 0.75 ECTS</text><text x="16" y="318.3673469387762" dy="0em" text-anchor="start">Web Technologies (75835)
 · 0.75 ECTS</text><text x="16" y="342.8571428571436" dy="0em" text-anchor="start">Basic Informatics (75969)
 · 0.38 ECTS</text><text x="16" y="367.3469387755109" dy="0em" text-anchor="start">Multimedia Technologies in Archaelogy (76011)
 · 0.55 ECTS</text><text x="16" y="391.83673469387827" dy="0em" text-anchor="start">Multimedia Data Management M (77933)
 · 0.75 ECTS</text><text x="16" y="416.3265306122456" dy="0em" text-anchor="start">Multimedia Data Management M (78096)
 · 1.23 ECTS</text><text x="16" y="440.81632653061297" dy="0em" text-anchor="start">Internet of Things (81683)
 · 0.29 ECTS</text><text x="16" y="465.3061224489803" dy="0em" text-anchor="start">Interaction Multimedia Services (81917)
 · 0.17 ECTS</text><text x="16" y="489.79591836734767" dy="0em" text-anchor="start">Informatic (82202)
 · 0.1 ECTS</text><text x="16" y="514.285714285715" dy="0em" text-anchor="start">Informatic (82202-A)
 · 0.09 ECTS</text><text x="16" y="538.7755102040824" dy="0em" text-anchor="start">Information Modelling and Web Technologies (85445)
 · 2 ECTS</text><text x="16" y="563.2653061224497" dy="0em" text-anchor="start">Knowledge Representation and Extraction (85446)
 · 4.5 ECTS</text><text x="16" y="587.7551020408171" dy="0em" text-anchor="start">Methods and Technologies for Interpreting (87898)
 · 1 ECTS</text><text x="16" y="612.2448979591844" dy="0em" text-anchor="start">Web Technology (88566)
 · 4.5 ECTS</text><text x="16" y="636.7346938775518" dy="0em" text-anchor="start">Fundamentals of Artificial Intelligence and Knowledge Representation (91248)
 · 2.25 ECTS</text><text x="16" y="661.2244897959191" dy="0em" text-anchor="start">Natural Language Processing (91258-A)
 · 0.38 ECTS</text><text x="16" y="685.7142857142865" dy="0em" text-anchor="start">Natural Language Processing (91258-B)
 · 0.22 ECTS</text><text x="16" y="710.2040816326538" dy="0em" text-anchor="start">Knowledge Engineering (91265)
 · 4.8 ECTS</text><text x="16" y="734.6938775510212" dy="0em" text-anchor="start">Multimedia Data Management (91269)
 · 0.86 ECTS</text><text x="16" y="759.1836734693885" dy="0em" text-anchor="start">Design of Web Applications T (94442)
 · 0.5 ECTS</text><text x="16" y="783.6734693877559" dy="0em" text-anchor="start">Web and Mobile Systems (95605)
 · 0.75 ECTS</text><text x="16" y="808.1632653061232" dy="0em" text-anchor="start">Software Engineering (95627)
 · 0.35 ECTS</text><text x="16" y="832.6530612244906" dy="0em" text-anchor="start">Machine Learning and Data Mining (95631-A)
 · 0.17 ECTS</text><text x="16" y="857.1428571428579" dy="0em" text-anchor="start">Foundations of Web Systems (95645)
 · 1.64 ECTS</text><text x="16" y="881.6326530612253" dy="0em" text-anchor="start">Informatics (96346-A)
 · 2 ECTS</text><text x="16" y="906.1224489795926" dy="0em" text-anchor="start">Fundamentals of Artificial Intelligence (98931)
 · 1.06 ECTS</text><text x="16" y="930.61224489796" dy="0em" text-anchor="start">Programming Laboratory (B0063)
 · 0.2 ECTS</text><text x="16" y="955.1020408163273" dy="0em" text-anchor="start">METODOLOGIE E TECNICHE DI SIMULAZIONE (B0070)
 · 4.57 ECTS</text><text x="16" y="979.5918367346947" dy="0em" text-anchor="start">ELABORAZIONE DI TESTI E GESTIONE DOCUMENTALE (B0073)
 · 3.2 ECTS</text><text x="16" y="1004.081632653062" dy="0em" text-anchor="start">Introduction to Programming (B1703)
 · 0.6 ECTS</text><text x="16" y="1028.5714285714294" dy="0em" text-anchor="start">Big Data Analytics and Text Mining (B2133)
 · 0.48 ECTS</text><text x="16" y="1053.0612244897966" dy="0em" text-anchor="start">Informatics for the Humanities (B4826)
 · 0.16 ECTS</text><text x="16" y="1077.5510204081638" dy="0em" text-anchor="start">Digital Humanities and Data Management for Cultural Heritage (B5079)
 · 1 ECTS</text><text x="16" y="1102.040816326531" dy="0em" text-anchor="start">Knowledge Engeneering for the Humanities (B5292)
 · 2 ECTS</text><text x="16" y="1126.5306122448983" dy="0em" text-anchor="start">Computer Studies and Humanities (B5293)
 · 1.71 ECTS</text><text x="16" y="1151.0204081632655" dy="0em" text-anchor="start">Computational Management of Data (B8105)
 · 0.75 ECTS</text><text x="16" y="1175.5102040816328" dy="0em" text-anchor="start">INFORMATICA (B8159)
 · 0.38 ECTS</text><text x="16" y="1200" dy="0em" text-anchor="start">Computer Studies and Human Sciences (B8929)
 · 3.43 ECTS</text></g><g class="links" fill="none" stroke-opacity="0.5"><g class="link" style="mix-blend-mode: multiply;"><path d="M10,6.821210263296962e-13C700,6.821210263296962e-13,700,649.9200231869428,1390,649.9200231869428" stroke="#4e79a7" stroke-width="1"/></g><g class="link" style="mix-blend-mode: multiply;"><path d="M10,24.48979591836803C700,24.48979591836803,700,649.9200231869428,1390,649.9200231869428" stroke="#e15759" stroke-width="1"/></g><g class="link" style="mix-blend-mode: multiply;"><path d="M10,48.97959183673538C700,48.97959183673538,700,649.9200231869428,1390,649.9200231869428" stroke="#76b7b2" stroke-width="1"/></g><g class="link" style="mix-blend-mode: multiply;"><path d="M10,73.46938775510273C700,73.46938775510273,700,649.9200231869428,1390,649.9200231869428" stroke="#59a14f" stroke-width="1"/></g><g class="link" style="mix-blend-mode: multiply;"><path d="M10,97.95918367347008C700,97.95918367347008,700,649.9200231869428,1390,649.9200231869428" stroke="#edc949" stroke-width="1"/></g><g class="link" style="mix-blend-mode: multiply;"><path d="M10,122.44897959183743C700,122.44897959183743,700,649.9200231869428,1390,649.9200231869428" stroke="#af7aa1" stroke-width="1"/></g><g class="link" style="mix-blend-mode: multiply;"><path d="M10,146.93877551020478C700,146.93877551020478,700,649.9200231869428,1390,649.9200231869428" stroke="#ff9da7" stroke-width="1"/></g><g class="link" style="mix-blend-mode: multiply;"><path d="M10,171.42857142857213C700,171.42857142857213,700,649.9200231869428,1390,649.9200231869428" stroke="#9c755f" stroke-width="1"/></g><g class="link" style="mix-blend-mode: multiply;"><path d="M10,195.91836734693948C700,195.91836734693948,700,649.9200231869428,1390,649.9200231869428" stroke="#bab0ab" stroke-width="1"/></g><g class="link" style="mix-blend-mode: multiply;"><path d="M10,220.40816326530683C700,220.40816326530683,700,649.9200231869428,1390,649.9200231869428" stroke="#4e79a7" stroke-width="1"/></g><g class="link" style="mix-blend-mode: multiply;"><path d="M10,244.89795918367417C700,244.89795918367417,700,649.9200231869428,1390,649.9200231869428" stroke="#f28e2c" stroke-width="1"/></g><g class="link" style="mix-blend-mode: multiply;"><path d="M10,269.3877551020415C700,269.3877551020415,700,649.9200231869428,1390,649.9200231869428" stroke="#e15759" stroke-width="1"/></g><g class="link" style="mix-blend-mode: multiply;"><path d="M10,293.8775510204089C700,293.8775510204089,700,649.9200231869428,1390,649.9200231869428" stroke="#76b7b2" stroke-width="1"/></g><g class="link" style="mix-blend-mode: multiply;"><path d="M10,318.3673469387762C700,318.3673469387762,700,649.9200231869428,1390,649.9200231869428" stroke="#59a14f" stroke-width="1"/></g><g class="link" style="mix-blend-mode: multiply;"><path d="M10,342.8571428571436C700,342.8571428571436,700,649.9200231869428,1390,649.9200231869428" stroke="#edc949" stroke-width="1"/></g><g class="link" style="mix-blend-mode: multiply;"><path d="M10,367.3469387755109C700,367.3469387755109,700,649.9200231869428,1390,649.9200231869428" stroke="#af7aa1" stroke-width="1"/></g><g class="link" style="mix-blend-mode: multiply;"><path d="M10,391.83673469387827C700,391.83673469387827,700,649.9200231869428,1390,649.9200231869428" stroke="#ff9da7" stroke-width="1"/></g><g class="link" style="mix-blend-mode: multiply;"><path d="M10,416.3265306122456C700,416.3265306122456,700,649.9200231869428,1390,649.9200231869428" stroke="#9c755f" stroke-width="1"/></g><g class="link" style="mix-blend-mode: multiply;"><path d="M10,440.81632653061297C700,440.81632653061297,700,649.9200231869428,1390,649.9200231869428" stroke="#bab0ab" stroke-width="1"/></g><g class="link" style="mix-blend-mode: multiply;"><path d="M10,465.3061224489803C700,465.3061224489803,700,649.9200231869428,1390,649.9200231869428" stroke="#4e79a7" stroke-width="1"/></g><g class="link" style="mix-blend-mode: multiply;"><path d="M10,489.79591836734767C700,489.79591836734767,700,649.9200231869428,1390,649.9200231869428" stroke="#f28e2c" stroke-width="1"/></g><g class="link" style="mix-blend-mode: multiply;"><path d="M10,514.285714285715C700,514.285714285715,700,649.9200231869428,1390,649.9200231869428" stroke="#e15759" stroke-width="1"/></g><g class="link" style="mix-blend-mode: multiply;"><path d="M10,538.7755102040824C700,538.7755102040824,700,649.9200231869428,1390,649.9200231869428" stroke="#76b7b2" stroke-width="1"/></g><g class="link" style="mix-blend-mode: multiply;"><path d="M10,563.2653061224497C700,563.2653061224497,700,649.9200231869428,1390,649.9200231869428" stroke="#59a14f" stroke-width="1"/></g><g class="link" style="mix-blend-mode: multiply;"><path d="M10,587.7551020408171C700,587.7551020408171,700,649.9200231869428,1390,649.9200231869428" stroke="#edc949" stroke-width="1"/></g><g class="link" style="mix-blend-mode: multiply;"><path d="M10,612.2448979591844C700,612.2448979591844,700,649.9200231869428,1390,649.9200231869428" stroke="#af7aa1" stroke-width="1"/></g><g class="link" style="mix-blend-mode: multiply;"><path d="M10,636.7346938775518C700,636.7346938775518,700,649.9200231869428,1390,649.9200231869428" stroke="#ff9da7" stroke-width="1"/></g><g class="link" style="mix-blend-mode: multiply;"><path d="M10,661.2244897959191C700,661.2244897959191,700,649.9200231869428,1390,649.9200231869428" stroke="#9c755f" stroke-width="1"/></g><g class="link" style="mix-blend-mode: multiply;"><path d="M10,685.7142857142865C700,685.7142857142865,700,649.9200231869428,1390,649.9200231869428" stroke="#bab0ab" stroke-width="1"/></g><g class="link" style="mix-blend-mode: multiply;"><path d="M10,710.2040816326538C700,710.2040816326538,700,649.9200231869428,1390,649.9200231869428" stroke="#4e79a7" stroke-width="1"/></g><g class="link" style="mix-blend-mode: multiply;"><path d="M10,734.6938775510212C700,734.6938775510212,700,649.9200231869428,1390,649.9200231869428" stroke="#f28e2c" stroke-width="1"/></g><g class="link" style="mix-blend-mode: multiply;"><path d="M10,759.1836734693885C700,759.1836734693885,700,649.9200231869428,1390,649.9200231869428" stroke="#e15759" stroke-width="1"/></g><g class="link" style="mix-blend-mode: multiply;"><path d="M10,783.6734693877559C700,783.6734693877559,700,649.9200231869428,1390,649.9200231869428" stroke="#76b7b2" stroke-width="1"/></g><g class="link" style="mix-blend-mode: multiply;"><path d="M10,808.1632653061232C700,808.1632653061232,700,649.9200231869428,1390,649.9200231869428" stroke="#59a14f" stroke-width="1"/></g><g class="link" style="mix-blend-mode: multiply;"><path d="M10,832.6530612244906C700,832.6530612244906,700,649.9200231869428,1390,649.9200231869428" stroke="#edc949" stroke-width="1"/></g><g class="link" style="mix-blend-mode: multiply;"><path d="M10,857.1428571428579C700,857.1428571428579,700,649.9200231869428,1390,649.9200231869428" stroke="#af7aa1" stroke-width="1"/></g><g class="link" style="mix-blend-mode: multiply;"><path d="M10,881.6326530612253C700,881.6326530612253,700,649.9200231869428,1390,649.9200231869428" stroke="#ff9da7" stroke-width="1"/></g><g class="link" style="mix-blend-mode: multiply;"><path d="M10,906.1224489795926C700,906.1224489795926,700,649.9200231869428,1390,649.9200231869428" stroke="#9c755f" stroke-width="1"/></g><g class="link" style="mix-blend-mode: multiply;"><path d="M10,930.61224489796C700,930.61224489796,700,649.9200231869428,1390,649.9200231869428" stroke="#bab0ab" stroke-width="1"/></g><g class="link" style="mix-blend-mode: multiply;"><path d="M10,955.1020408163273C700,955.1020408163273,700,649.9200231869428,1390,649.9200231869428" stroke="#4e79a7" stroke-width="1"/></g><g class="link" style="mix-blend-mode: multiply;"><path d="M10,979.5918367346947C700,979.5918367346947,700,649.9200231869428,1390,649.9200231869428" stroke="#f28e2c" stroke-width="1"/></g><g class="link" style="mix-blend-mode: multiply;"><path d="M10,1004.081632653062C700,1004.081632653062,700,649.9200231869428,1390,649.9200231869428" stroke="#e15759" stroke-width="1"/></g><g class="link" style="mix-blend-mode: multiply;"><path d="M10,1028.5714285714294C700,1028.5714285714294,700,649.9200231869428,1390,649.9200231869428" stroke="#76b7b2" stroke-width="1"/></g><g class="link" style="mix-blend-mode: multiply;"><path d="M10,1053.0612244897966C700,1053.0612244897966,700,649.9200231869428,1390,649.9200231869428" stroke="#59a14f" stroke-width="1"/></g><g class="link" style="mix-blend-mode: multiply;"><path d="M10,1077.5510204081638C700,1077.5510204081638,700,649.9200231869428,1390,649.9200231869428" stroke="#edc949" stroke-width="1"/></g><g class="link" style="mix-blend-mode: multiply;"><path d="M10,1102.040816326531C700,1102.040816326531,700,649.9200231869428,1390,649.9200231869428" stroke="#af7aa1" stroke-width="1"/></g><g class="link" style="mix-blend-mode: multiply;"><path d="M10,1126.5306122448983C700,1126.5306122448983,700,649.9200231869428,1390,649.9200231869428" stroke="#ff9da7" stroke-width="1"/></g><g class="link" style="mix-blend-mode: multiply;"><path d="M10,1151.0204081632655C700,1151.0204081632655,700,649.9200231869428,1390,649.9200231869428" stroke="#9c755f" stroke-width="1"/></g><g class="link" style="mix-blend-mode: multiply;"><path d="M10,1175.5102040816328C700,1175.5102040816328,700,649.9200231869428,1390,649.9200231869428" stroke="#bab0ab" stroke-width="1"/></g><g class="link" style="mix-blend-mode: multiply;"><path d="M10,1200C700,1200,700,649.9200231869428,1390,649.9200231869428" stroke="#4e79a7" stroke-width="1"/></g></g></svg>