<svg xml:space="preserve" id="my-svg" width="100%" xmlns="http://www.w3.org/2000/svg" xmlns:xlink="http://www.w3.org/1999/xlink" style="max-width: 1380px; background-color: white;" viewBox="10 -13 1380 1336" role="graphics-document document" aria-roledescription="sankey"><style>#my-svg{font-family:"trebuchet ms",verdana,arial,sans-serif;font-size:16px;fill:#333;}@keyframes edge-animation-frame{from{stroke-dashoffset:0;}}@keyframes dash{to{stroke-dashoffset:0;}}#my-svg .edge-animation-slow{stroke-dasharray:9,5!important;stroke-dashoffset:900;animation:dash 50s linear infinite;stroke-linecap:round;}#my-svg .edge-animation-fast{stroke-dasharray:9,5!important;stroke-dashoffset:900;animation:dash 20s linear infinite;stroke-linecap:round;}#my-svg .error-icon{fill:#552222;}#my-svg .error-text{fill:#552222;stroke:#552222;}#my-svg .edge-thickness-normal{stroke-width:1px;}#my-svg .edge-thickness-thick{stroke-width:3.5px;}#my-svg .edge-pattern-solid{stroke-dasharray:0;}#my-svg .edge-thickness-invisible{stroke-width:0;fill:none;}#my-svg .edge-pattern-dashed{stroke-dasharray:3;}#my-svg .edge-pattern-dotted{stroke-dasharray:2;}#my-svg .marker{fill:#333333;stroke:#333333;}#my-svg .marker.cross{stroke:#333333;}#my-svg svg{font-family:"trebuchet ms",verdana,arial,sans-serif;font-size:16px;}#my-svg p{margin:0;}#my-svg .label{font-family:"trebuchet ms",verdana,arial,sans-serif;}#my-svg .node-labels{font-family:"trebuchet ms",verdana,arial,sans-serif;}#my-svg .sankey-label-bg{stroke:#ECECFF;stroke-width:4px;stroke-linejoin:round;paint-order:stroke;}#my-svg .sankey-label-fg{fill:#333;}#my-svg .node rect{shape-rendering:crispEdges;}#my-svg .link{fill:none;stroke-opacity:0.5;mix-blend-mode:multiply;}#my-svg .node .neo-node{stroke:#9370DB;}#my-svg [data-look="neo"].node rect,#my-svg [data-look="neo"].cluster rect,#my-svg [data-look="neo"].node polygon{stroke:#9370DB;filter:drop-shadow(1px 2px 2px rgba(185, 185, 185, 1));}#my-svg [data-look="neo"].swimlane.cluster rect{filter:none;}#my-svg [data-look="neo"].node path{stroke:#9370DB;stroke-width:1px;}#my-svg [data-look="neo"].node .outer-path{filter:drop-shadow(1px 2px 2px rgba(185, 185, 185, 1));}#my-svg [data-look="neo"].node .neo-line path{stroke:#9370DB;filter:none;}#my-svg [data-look="neo"].node circle{stroke:#9370DB;filter:drop-shadow(1px 2px 2px rgba(185, 185, 185, 1));}#my-svg [data-look="neo"].node circle .state-start{fill:#000000;}#my-svg [data-look="neo"].icon-shape .icon{fill:#9370DB;filter:drop-shadow(1px 2px 2px rgba(185, 185, 185, 1));}#my-svg [data-look="neo"].icon-shape .icon-neo path{stroke:#9370DB;filter:drop-shadow(1px 2px 2px rgba(185, 185, 185, 1));}#my-svg :root{--mermaid-font-family:"trebuchet ms",verdana,arial,sans-serif;}</style><g/><g class="nodes"><g class="node" id="node-1" transform="translate(0,0)" x="0" y="0"><rect height="0" width="10" fill="#4e79a7"/></g><g class="node" id="node-2" transform="translate(1390,618.8090206225888)" x="1390" y="618.8090206225888"><rect height="0" width="10" fill="#f28e2c"/></g><g class="node" id="node-3" transform="translate(0,122.22222222222229)" x="0" y="122.22222222222229"><rect height="0" width="10" fill="#e15759"/></g><g class="node" id="node-4" transform="translate(0,146.66666666666674)" x="0" y="146.66666666666674"><rect height="0" width="10" fill="#76b7b2"/></g><g class="node" id="node-5" transform="translate(0,24.444444444444457)" x="0" y="24.444444444444457"><rect height="0" width="10" fill="#59a14f"/></g><g class="node" id="node-6" transform="translate(0,97.77777777777783)" x="0" y="97.77777777777783"><rect height="0" width="10" fill="#edc949"/></g><g class="node" id="node-7" transform="translate(0,48.888888888888914)" x="0" y="48.888888888888914"><rect height="0" width="10" fill="#af7aa1"/></g><g class="node" id="node-8" transform="translate(0,415.55555555555577)" x="0" y="415.55555555555577"><rect height="0" width="10" fill="#ff9da7"/></g><g class="node" id="node-9" transform="translate(1390,770.9439289610316)" x="1390" y="770.9439289610316"><rect height="0" width="10" fill="#9c755f"/></g><g class="node" id="node-10" transform="translate(0,73.33333333333337)" x="0" y="73.33333333333337"><rect height="0" width="10" fill="#bab0ab"/></g><g class="node" id="node-11" transform="translate(0,171.1111111111112)" x="0" y="171.1111111111112"><rect height="0" width="10" fill="#4e79a7"/></g><g class="node" id="node-12" transform="translate(0,195.55555555555569)" x="0" y="195.55555555555569"><rect height="0" width="10" fill="#f28e2c"/></g><g class="node" id="node-13" transform="translate(0,220.0000000000001)" x="0" y="220.0000000000001"><rect height="0" width="10" fill="#e15759"/></g><g class="node" id="node-14" transform="translate(0,244.44444444444457)" x="0" y="244.44444444444457"><rect height="0" width="10" fill="#76b7b2"/></g><g class="node" id="node-15" transform="translate(0,611.1111111111114)" x="0" y="611.1111111111114"><rect height="0" width="10" fill="#59a14f"/></g><g class="node" id="node-16" transform="translate(1390,957.8954798241721)" x="1390" y="957.8954798241721"><rect height="0" width="10" fill="#edc949"/></g><g class="node" id="node-17" transform="translate(0,268.888888888889)" x="0" y="268.888888888889"><rect height="0" width="10" fill="#af7aa1"/></g><g class="node" id="node-18" transform="translate(0,293.3333333333335)" x="0" y="293.3333333333335"><rect height="0" width="10" fill="#ff9da7"/></g><g class="node" id="node-19" transform="translate(0,317.77777777777794)" x="0" y="317.77777777777794"><rect height="0" width="10" fill="#9c755f"/></g><g class="node" id="node-20" transform="translate(0,806.6666666666671)" x="0" y="806.6666666666671"><rect height="0" width="10" fill="#bab0ab"/></g><g class="node" id="node-21" transform="translate(0,708.8888888888893)" x="0" y="708.8888888888893"><rect height="0" width="10" fill="#4e79a7"/></g><g class="node" id="node-22" transform="translate(0,1246.6666666666663)" x="0" y="1246.6666666666663"><rect height="0" width="10" fill="#f28e2c"/></g><g class="node" id="node-23" transform="translate(1390,1221.0655685017878)" x="1390" y="1221.0655685017878"><rect height="0" width="10" fill="#e15759"/></g><g class="node" id="node-24" transform="translate(0,342.2222222222224)" x="0" y="342.2222222222224"><rect height="0" width="10" fill="#76b7b2"/></g><g class="node" id="node-25" transform="translate(0,562.2222222222225)" x="0" y="562.2222222222225"><rect height="0" width="10" fill="#59a14f"/></g><g class="node" id="node-26" transform="translate(0,366.66666666666686)" x="0" y="366.66666666666686"><rect height="0" width="10" fill="#edc949"/></g><g class="node" id="node-27" transform="translate(0,391.1111111111113)" x="0" y="391.1111111111113"><rect height="0" width="10" fill="#af7aa1"/></g><g class="node" id="node-28" transform="translate(0,440.0000000000002)" x="0" y="440.0000000000002"><rect height="0" width="10" fill="#ff9da7"/></g><g class="node" id="node-29" transform="translate(0,464.4444444444447)" x="0" y="464.4444444444447"><rect height="0" width="10" fill="#9c755f"/></g><g class="node" id="node-30" transform="translate(0,488.88888888888914)" x="0" y="488.88888888888914"><rect height="0" width="10" fill="#bab0ab"/></g><g class="node" id="node-31" transform="translate(0,733.3333333333337)" x="0" y="733.3333333333337"><rect height="0" width="10" fill="#4e79a7"/></g><g class="node" id="node-32" transform="translate(0,513.3333333333336)" x="0" y="513.3333333333336"><rect height="0" width="10" fill="#f28e2c"/></g><g class="node" id="node-33" transform="translate(0,537.777777777778)" x="0" y="537.777777777778"><rect height="0" width="10" fill="#e15759"/></g><g class="node" id="node-34" transform="translate(0,586.666666666667)" x="0" y="586.666666666667"><rect height="0" width="10" fill="#76b7b2"/></g><g class="node" id="node-35" transform="translate(0,1197.7777777777776)" x="0" y="1197.7777777777776"><rect height="0" width="10" fill="#59a14f"/></g><g class="node" id="node-36" transform="translate(0,635.5555555555559)" x="0" y="635.5555555555559"><rect height="0" width="10" fill="#edc949"/></g><g class="node" id="node-37" transform="translate(0,660.0000000000003)" x="0" y="660.0000000000003"><rect height="0" width="10" fill="#af7aa1"/></g><g class="node" id="node-38" transform="translate(0,880.0000000000005)" x="0" y="880.0000000000005"><rect height="0" width="10" fill="#ff9da7"/></g><g class="node" id="node-39" transform="translate(0,1075.5555555555559)" x="0" y="1075.5555555555559"><rect height="0" width="10" fill="#9c755f"/></g><g class="node" id="node-40" transform="translate(0,928.8888888888894)" x="0" y="928.8888888888894"><rect height="0" width="10" fill="#bab0ab"/></g><g class="node" id="node-41" transform="translate(0,1271.1111111111106)" x="0" y="1271.1111111111106"><rect height="0" width="10" fill="#4e79a7"/></g><g class="node" id="node-42" transform="translate(0,1002.2222222222227)" x="0" y="1002.2222222222227"><rect height="0" width="10" fill="#f28e2c"/></g><g class="node" id="node-43" transform="translate(0,684.4444444444448)" x="0" y="684.4444444444448"><rect height="0" width="10" fill="#e15759"/></g><g class="node" id="node-44" transform="translate(0,904.4444444444449)" x="0" y="904.4444444444449"><rect height="0" width="10" fill="#76b7b2"/></g><g class="node" id="node-45" transform="translate(0,977.7777777777783)" x="0" y="977.7777777777783"><rect height="0" width="10" fill="#59a14f"/></g><g class="node" id="node-46" transform="translate(0,1026.6666666666672)" x="0" y="1026.6666666666672"><rect height="0" width="10" fill="#edc949"/></g><g class="node" id="node-47" transform="translate(0,757.7777777777782)" x="0" y="757.7777777777782"><rect height="0" width="10" fill="#af7aa1"/></g><g class="node" id="node-48" transform="translate(0,953.3333333333338)" x="0" y="953.3333333333338"><rect height="0" width="10" fill="#ff9da7"/></g><g class="node" id="node-49" transform="translate(0,1051.1111111111115)" x="0" y="1051.1111111111115"><rect height="0" width="10" fill="#9c755f"/></g><g class="node" id="node-50" transform="translate(0,782.2222222222226)" x="0" y="782.2222222222226"><rect height="0" width="10" fill="#bab0ab"/></g><g class="node" id="node-51" transform="translate(0,855.555555555556)" x="0" y="855.555555555556"><rect height="0" width="10" fill="#4e79a7"/></g><g class="node" id="node-52" transform="translate(0,1148.888888888889)" x="0" y="1148.888888888889"><rect height="0" width="10" fill="#f28e2c"/></g><g class="node" id="node-53" transform="translate(0,1124.4444444444446)" x="0" y="1124.4444444444446"><rect height="0" width="10" fill="#e15759"/></g><g class="node" id="node-54" transform="translate(0,1222.222222222222)" x="0" y="1222.222222222222"><rect height="0" width="10" fill="#76b7b2"/></g><g class="node" id="node-55" transform="translate(0,1173.3333333333333)" x="0" y="1173.3333333333333"><rect height="0" width="10" fill="#59a14f"/></g><g class="node" id="node-56" transform="translate(0,1100.0000000000002)" x="0" y="1100.0000000000002"><rect height="0" width="10" fill="#edc949"/></g><g class="node" id="node-57" transform="translate(0,1295.555555555555)" x="0" y="1295.555555555555"><rect height="0" width="10" fill="#af7aa1"/></g><g class="node" id="node-58" transform="translate(0,831.1111111111115)" x="0" y="831.1111111111115"><rect height="0" width="10" fill="#ff9da7"/></g><g class="node" id="node-59" transform="translate(0,1319.9999999999993)" x="0" y="1319.9999999999993"><rect height="0" width="10" fill="#9c755f"/></g></g><g class="node-labels" font-size="14"><text x="16" y="0" dy="0em" text-anchor="start">Software Engineering (09032)
 · 4.2 ECTS</text><text x="1384" y="618.8090206225888" dy="0em" text-anchor="end">Software Engineering Foundations (12 ECTS)
 · 70.09 ECTS</text><text x="16" y="122.22222222222229" dy="0em" text-anchor="start">Databases (10906)
 · 1 ECTS</text><text x="16" y="146.66666666666674" dy="0em" text-anchor="start">Databases (10906-A)
 · 1.09 ECTS</text><text x="16" y="24.444444444444457" dy="0em" text-anchor="start">Programming Laboratory (16870)
 · 1.2 ECTS</text><text x="16" y="97.77777777777783" dy="0em" text-anchor="start">Humanistic IT (27311-A)
 · 0.5 ECTS</text><text x="16" y="48.888888888888914" dy="0em" text-anchor="start">Foundations of Informatics T-1 (28004)
 · 0.6 ECTS</text><text x="16" y="415.55555555555577" dy="0em" text-anchor="start">Software Engineering T (28021)
 · 6.43 ECTS</text><text x="1384" y="770.9439289610316" dy="0em" text-anchor="end">Software Platform Development (6 ECTS)
 · 7.23 ECTS</text><text x="16" y="73.33333333333337" dy="0em" text-anchor="start">Information Systems T (28027)
 · 0.9 ECTS</text><text x="16" y="171.1111111111112" dy="0em" text-anchor="start">IT Systems T-1 (28652)
 · 0.6 ECTS</text><text x="16" y="195.55555555555569" dy="0em" text-anchor="start">Web Technologies T (28659)
 · 0.9 ECTS</text><text x="16" y="220.0000000000001" dy="0em" text-anchor="start">Data Mining (40720)
 · 0.19 ECTS</text><text x="16" y="244.44444444444457" dy="0em" text-anchor="start">Informatics (60348)
 · 0.56 ECTS</text><text x="16" y="611.1111111111114" dy="0em" text-anchor="start">Software Engineering (66858)
 · 4.36 ECTS</text><text x="1384" y="957.8954798241721" dy="0em" text-anchor="end">DevOps and Service Engineering (12 ECTS)
 · 17.82 ECTS</text><text x="16" y="268.888888888889" dy="0em" text-anchor="start">Mobile Applications Laboratory (66860)
 · 0.67 ECTS</text><text x="16" y="293.3333333333335" dy="0em" text-anchor="start">Data Bases (70155)
 · 0.6 ECTS</text><text x="16" y="317.77777777777794" dy="0em" text-anchor="start">Object-Oriented Programming (70219)
 · 0.92 ECTS</text><text x="16" y="806.6666666666671" dy="0em" text-anchor="start">Software Systems Engineering M (72939)
 · 3.08 ECTS</text><text x="16" y="708.8888888888893" dy="0em" text-anchor="start">Computational Models And Languages M (72940)
 · 0.5 ECTS</text><text x="16" y="1246.6666666666663" dy="0em" text-anchor="start">Distributed Systems M (73025)
 · 4.44 ECTS</text><text x="1384" y="1221.0655685017878" dy="0em" text-anchor="end">Enterprise Application Platforms (6 ECTS)
 · 4.63 ECTS</text><text x="16" y="342.2222222222224" dy="0em" text-anchor="start">Project Management (73435)
 · 4 ECTS</text><text x="16" y="562.2222222222225" dy="0em" text-anchor="start">Programming and Development paradigms (81612)
 · 3 ECTS</text><text x="16" y="366.66666666666686" dy="0em" text-anchor="start">Emerging Programming Paradigms (81672)
 · 0.43 ECTS</text><text x="16" y="391.1111111111113" dy="0em" text-anchor="start">Context-Aware Systems (84401)
 · 0.27 ECTS</text><text x="16" y="440.0000000000002" dy="0em" text-anchor="start">Programming (85285)
 · 0.71 ECTS</text><text x="16" y="464.4444444444447" dy="0em" text-anchor="start">Knowledge Representation and Extraction (85446)
 · 0.38 ECTS</text><text x="16" y="488.88888888888914" dy="0em" text-anchor="start">Distributed Systems (87474)
 · 0.32 ECTS</text><text x="16" y="733.3333333333337" dy="0em" text-anchor="start">Software Engineering (90106)
 · 7.36 ECTS</text><text x="16" y="513.3333333333336" dy="0em" text-anchor="start">Elements of Computer Technologies for Fashion E-Commerce (90864)
 · 0.67 ECTS</text><text x="16" y="537.777777777778" dy="0em" text-anchor="start">Advanced Programming (93363)
 · 0.46 ECTS</text><text x="16" y="586.666666666667" dy="0em" text-anchor="start">Distributed Software Systems (93468)
 · 0.32 ECTS</text><text x="16" y="1197.7777777777776" dy="0em" text-anchor="start">Design of Web Applications T (94442)
 · 2.5 ECTS</text><text x="16" y="635.5555555555559" dy="0em" text-anchor="start">Web and Mobile Systems (95605)
 · 0.75 ECTS</text><text x="16" y="660.0000000000003" dy="0em" text-anchor="start">Database Systems (95611)
 · 1 ECTS</text><text x="16" y="880.0000000000005" dy="0em" text-anchor="start">Software Engineering (95627)
 · 3 ECTS</text><text x="16" y="1075.5555555555559" dy="0em" text-anchor="start">Virtualized Systems (95646)
 · 0.75 ECTS</text><text x="16" y="928.8888888888894" dy="0em" text-anchor="start">Software Design and Development (95648)
 · 2.81 ECTS</text><text x="16" y="1271.1111111111106" dy="0em" text-anchor="start">Virtualization and System Integration (96642)
 · 0.78 ECTS</text><text x="16" y="1002.2222222222227" dy="0em" text-anchor="start">Scalable and Reliable Services M (97431)
 · 4.24 ECTS</text><text x="16" y="684.4444444444448" dy="0em" text-anchor="start">Cyber-Physical Systems Programming M (99195)
 · 0.23 ECTS</text><text x="16" y="904.4444444444449" dy="0em" text-anchor="start">Advanced Software Modelling and Design (B0009)
 · 1.24 ECTS</text><text x="16" y="977.7777777777783" dy="0em" text-anchor="start">Software Architecture and Platforms (B0010)
 · 2.25 ECTS</text><text x="16" y="1026.6666666666672" dy="0em" text-anchor="start">Software Process Engineering (B0011)
 · 4.2 ECTS</text><text x="16" y="757.7777777777782" dy="0em" text-anchor="start">Computer Methods for Digital Transformation (B0061)
 · 6 ECTS</text><text x="16" y="953.3333333333338" dy="0em" text-anchor="start">Programming Laboratory (B0063)
 · 0.2 ECTS</text><text x="16" y="1051.1111111111115" dy="0em" text-anchor="start">Introduction to Data Science and Computational Thinking (B0064)
 · 0.8 ECTS</text><text x="16" y="782.2222222222226" dy="0em" text-anchor="start">PIATTAFORME PER LA TRASFORMAZIONE DIGITALE (B0074)
 · 3 ECTS</text><text x="16" y="855.555555555556" dy="0em" text-anchor="start">ARTIFICIAL INTELLIGENCE, BLOCKCHAIN E CRIPTOVALUTE NELLO SVILUPPO SOFTWARE (B1459)
 · 2.25 ECTS</text><text x="16" y="1148.888888888889" dy="0em" text-anchor="start">Project Management and Software Engineering for Cultural Heritage (B1874)
 · 4 ECTS</text><text x="16" y="1124.4444444444446" dy="0em" text-anchor="start">ARCHITETTURE SOFTWARE A MICROSERVIZI (B5474)
 · 1.58 ECTS</text><text x="16" y="1222.222222222222" dy="0em" text-anchor="start">Scalable and Reliable Services M (B5796)
 · 4.24 ECTS</text><text x="16" y="1173.3333333333333" dy="0em" text-anchor="start">PROGRAMMING THE INTERNET OF THINGS M (B8019)
 · 0.67 ECTS</text><text x="16" y="1100.0000000000002" dy="0em" text-anchor="start">Computational Management of Data (B8105)
 · 0.38 ECTS</text><text x="16" y="1295.555555555555" dy="0em" text-anchor="start">Computer-Aided Human Translation: CAT, MT and AI (B8536)
 · 0.5 ECTS</text><text x="16" y="831.1111111111115" dy="0em" text-anchor="start">SISTEMI SOFTWARE A OGGETTI T (B8554)
 · 1.26 ECTS</text><text x="16" y="1319.9999999999993" dy="0em" text-anchor="start">Machine Translation and Artificial Intelligence for Language Services (B8603)
 · 0.5 ECTS</text></g><g class="links" fill="none" stroke-opacity="0.5"><g class="link" style="mix-blend-mode: multiply;"><path d="M10,0C700,0,700,618.8090206225888,1390,618.8090206225888" stroke="#4e79a7" stroke-width="1"/></g><g class="link" style="mix-blend-mode: multiply;"><path d="M10,122.22222222222229C700,122.22222222222229,700,618.8090206225888,1390,618.8090206225888" stroke="#e15759" stroke-width="1"/></g><g class="link" style="mix-blend-mode: multiply;"><path d="M10,146.66666666666674C700,146.66666666666674,700,618.8090206225888,1390,618.8090206225888" stroke="#76b7b2" stroke-width="1"/></g><g class="link" style="mix-blend-mode: multiply;"><path d="M10,24.444444444444457C700,24.444444444444457,700,618.8090206225888,1390,618.8090206225888" stroke="#59a14f" stroke-width="1"/></g><g class="link" style="mix-blend-mode: multiply;"><path d="M10,97.77777777777783C700,97.77777777777783,700,618.8090206225888,1390,618.8090206225888" stroke="#edc949" stroke-width="1"/></g><g class="link" style="mix-blend-mode: multiply;"><path d="M10,48.888888888888914C700,48.888888888888914,700,618.8090206225888,1390,618.8090206225888" stroke="#af7aa1" stroke-width="1"/></g><g class="link" style="mix-blend-mode: multiply;"><path d="M10,415.55555555555577C700,415.55555555555577,700,618.8090206225888,1390,618.8090206225888" stroke="#ff9da7" stroke-width="1"/></g><g class="link" style="mix-blend-mode: multiply;"><path d="M10,415.55555555555577C700,415.55555555555577,700,770.9439289610316,1390,770.9439289610316" stroke="#ff9da7" stroke-width="1"/></g><g class="link" style="mix-blend-mode: multiply;"><path d="M10,73.33333333333337C700,73.33333333333337,700,618.8090206225888,1390,618.8090206225888" stroke="#bab0ab" stroke-width="1"/></g><g class="link" style="mix-blend-mode: multiply;"><path d="M10,171.1111111111112C700,171.1111111111112,700,618.8090206225888,1390,618.8090206225888" stroke="#4e79a7" stroke-width="1"/></g><g class="link" style="mix-blend-mode: multiply;"><path d="M10,195.55555555555569C700,195.55555555555569,700,618.8090206225888,1390,618.8090206225888" stroke="#f28e2c" stroke-width="1"/></g><g class="link" style="mix-blend-mode: multiply;"><path d="M10,220.0000000000001C700,220.0000000000001,700,618.8090206225888,1390,618.8090206225888" stroke="#e15759" stroke-width="1"/></g><g class="link" style="mix-blend-mode: multiply;"><path d="M10,244.44444444444457C700,244.44444444444457,700,618.8090206225888,1390,618.8090206225888" stroke="#76b7b2" stroke-width="1"/></g><g class="link" style="mix-blend-mode: multiply;"><path d="M10,611.1111111111114C700,611.1111111111114,700,618.8090206225888,1390,618.8090206225888" stroke="#59a14f" stroke-width="1"/></g><g class="link" style="mix-blend-mode: multiply;"><path d="M10,611.1111111111114C700,611.1111111111114,700,957.8954798241721,1390,957.8954798241721" stroke="#59a14f" stroke-width="1"/></g><g class="link" style="mix-blend-mode: multiply;"><path d="M10,268.888888888889C700,268.888888888889,700,618.8090206225888,1390,618.8090206225888" stroke="#af7aa1" stroke-width="1"/></g><g class="link" style="mix-blend-mode: multiply;"><path d="M10,293.3333333333335C700,293.3333333333335,700,618.8090206225888,1390,618.8090206225888" stroke="#ff9da7" stroke-width="1"/></g><g class="link" style="mix-blend-mode: multiply;"><path d="M10,317.77777777777794C700,317.77777777777794,700,618.8090206225888,1390,618.8090206225888" stroke="#9c755f" stroke-width="1"/></g><g class="link" style="mix-blend-mode: multiply;"><path d="M10,806.6666666666671C700,806.6666666666671,700,618.8090206225888,1390,618.8090206225888" stroke="#bab0ab" stroke-width="1"/></g><g class="link" style="mix-blend-mode: multiply;"><path d="M10,806.6666666666671C700,806.6666666666671,700,957.8954798241721,1390,957.8954798241721" stroke="#bab0ab" stroke-width="1"/></g><g class="link" style="mix-blend-mode: multiply;"><path d="M10,806.6666666666671C700,806.6666666666671,700,770.9439289610316,1390,770.9439289610316" stroke="#bab0ab" stroke-width="1"/></g><g class="link" style="mix-blend-mode: multiply;"><path d="M10,708.8888888888893C700,708.8888888888893,700,770.9439289610316,1390,770.9439289610316" stroke="#4e79a7" stroke-width="1"/></g><g class="link" style="mix-blend-mode: multiply;"><path d="M10,1246.6666666666663C700,1246.6666666666663,700,1221.0655685017878,1390,1221.0655685017878" stroke="#f28e2c" stroke-width="1"/></g><g class="link" style="mix-blend-mode: multiply;"><path d="M10,1246.6666666666663C700,1246.6666666666663,700,618.8090206225888,1390,618.8090206225888" stroke="#f28e2c" stroke-width="1"/></g><g class="link" style="mix-blend-mode: multiply;"><path d="M10,1246.6666666666663C700,1246.6666666666663,700,957.8954798241721,1390,957.8954798241721" stroke="#f28e2c" stroke-width="1"/></g><g class="link" style="mix-blend-mode: multiply;"><path d="M10,342.2222222222224C700,342.2222222222224,700,618.8090206225888,1390,618.8090206225888" stroke="#76b7b2" stroke-width="1"/></g><g class="link" style="mix-blend-mode: multiply;"><path d="M10,562.2222222222225C700,562.2222222222225,700,618.8090206225888,1390,618.8090206225888" stroke="#59a14f" stroke-width="1"/></g><g class="link" style="mix-blend-mode: multiply;"><path d="M10,562.2222222222225C700,562.2222222222225,700,957.8954798241721,1390,957.8954798241721" stroke="#59a14f" stroke-width="1"/></g><g class="link" style="mix-blend-mode: multiply;"><path d="M10,366.66666666666686C700,366.66666666666686,700,618.8090206225888,1390,618.8090206225888" stroke="#edc949" stroke-width="1"/></g><g class="link" style="mix-blend-mode: multiply;"><path d="M10,391.1111111111113C700,391.1111111111113,700,618.8090206225888,1390,618.8090206225888" stroke="#af7aa1" stroke-width="1"/></g><g class="link" style="mix-blend-mode: multiply;"><path d="M10,440.0000000000002C700,440.0000000000002,700,618.8090206225888,1390,618.8090206225888" stroke="#ff9da7" stroke-width="1"/></g><g class="link" style="mix-blend-mode: multiply;"><path d="M10,464.4444444444447C700,464.4444444444447,700,618.8090206225888,1390,618.8090206225888" stroke="#9c755f" stroke-width="1"/></g><g class="link" style="mix-blend-mode: multiply;"><path d="M10,488.88888888888914C700,488.88888888888914,700,618.8090206225888,1390,618.8090206225888" stroke="#bab0ab" stroke-width="1"/></g><g class="link" style="mix-blend-mode: multiply;"><path d="M10,733.3333333333337C700,733.3333333333337,700,618.8090206225888,1390,618.8090206225888" stroke="#4e79a7" stroke-width="1"/></g><g class="link" style="mix-blend-mode: multiply;"><path d="M10,733.3333333333337C700,733.3333333333337,700,957.8954798241721,1390,957.8954798241721" stroke="#4e79a7" stroke-width="1"/></g><g class="link" style="mix-blend-mode: multiply;"><path d="M10,513.3333333333336C700,513.3333333333336,700,618.8090206225888,1390,618.8090206225888" stroke="#f28e2c" stroke-width="1"/></g><g class="link" style="mix-blend-mode: multiply;"><path d="M10,537.777777777778C700,537.777777777778,700,618.8090206225888,1390,618.8090206225888" stroke="#e15759" stroke-width="1"/></g><g class="link" style="mix-blend-mode: multiply;"><path d="M10,586.666666666667C700,586.666666666667,700,618.8090206225888,1390,618.8090206225888" stroke="#76b7b2" stroke-width="1"/></g><g class="link" style="mix-blend-mode: multiply;"><path d="M10,1197.7777777777776C700,1197.7777777777776,700,618.8090206225888,1390,618.8090206225888" stroke="#59a14f" stroke-width="1"/></g><g class="link" style="mix-blend-mode: multiply;"><path d="M10,1197.7777777777776C700,1197.7777777777776,700,1221.0655685017878,1390,1221.0655685017878" stroke="#59a14f" stroke-width="1"/></g><g class="link" style="mix-blend-mode: multiply;"><path d="M10,635.5555555555559C700,635.5555555555559,700,618.8090206225888,1390,618.8090206225888" stroke="#edc949" stroke-width="1"/></g><g class="link" style="mix-blend-mode: multiply;"><path d="M10,660.0000000000003C700,660.0000000000003,700,618.8090206225888,1390,618.8090206225888" stroke="#af7aa1" stroke-width="1"/></g><g class="link" style="mix-blend-mode: multiply;"><path d="M10,880.0000000000005C700,880.0000000000005,700,618.8090206225888,1390,618.8090206225888" stroke="#ff9da7" stroke-width="1"/></g><g class="link" style="mix-blend-mode: multiply;"><path d="M10,880.0000000000005C700,880.0000000000005,700,957.8954798241721,1390,957.8954798241721" stroke="#ff9da7" stroke-width="1"/></g><g class="link" style="mix-blend-mode: multiply;"><path d="M10,1075.5555555555559C700,1075.5555555555559,700,957.8954798241721,1390,957.8954798241721" stroke="#9c755f" stroke-width="1"/></g><g class="link" style="mix-blend-mode: multiply;"><path d="M10,928.8888888888894C700,928.8888888888894,700,957.8954798241721,1390,957.8954798241721" stroke="#bab0ab" stroke-width="1"/></g><g class="link" style="mix-blend-mode: multiply;"><path d="M10,928.8888888888894C700,928.8888888888894,700,618.8090206225888,1390,618.8090206225888" stroke="#bab0ab" stroke-width="1"/></g><g class="link" style="mix-blend-mode: multiply;"><path d="M10,1271.1111111111106C700,1271.1111111111106,700,1221.0655685017878,1390,1221.0655685017878" stroke="#4e79a7" stroke-width="1"/></g><g class="link" style="mix-blend-mode: multiply;"><path d="M10,1271.1111111111106C700,1271.1111111111106,700,957.8954798241721,1390,957.8954798241721" stroke="#4e79a7" stroke-width="1"/></g><g class="link" style="mix-blend-mode: multiply;"><path d="M10,1002.2222222222227C700,1002.2222222222227,700,957.8954798241721,1390,957.8954798241721" stroke="#f28e2c" stroke-width="1"/></g><g class="link" style="mix-blend-mode: multiply;"><path d="M10,1002.2222222222227C700,1002.2222222222227,700,618.8090206225888,1390,618.8090206225888" stroke="#f28e2c" stroke-width="1"/></g><g class="link" style="mix-blend-mode: multiply;"><path d="M10,684.4444444444448C700,684.4444444444448,700,618.8090206225888,1390,618.8090206225888" stroke="#e15759" stroke-width="1"/></g><g class="link" style="mix-blend-mode: multiply;"><path d="M10,904.4444444444449C700,904.4444444444449,700,770.9439289610316,1390,770.9439289610316" stroke="#76b7b2" stroke-width="1"/></g><g class="link" style="mix-blend-mode: multiply;"><path d="M10,904.4444444444449C700,904.4444444444449,700,618.8090206225888,1390,618.8090206225888" stroke="#76b7b2" stroke-width="1"/></g><g class="link" style="mix-blend-mode: multiply;"><path d="M10,904.4444444444449C700,904.4444444444449,700,957.8954798241721,1390,957.8954798241721" stroke="#76b7b2" stroke-width="1"/></g><g class="link" style="mix-blend-mode: multiply;"><path d="M10,977.7777777777783C700,977.7777777777783,700,618.8090206225888,1390,618.8090206225888" stroke="#59a14f" stroke-width="1"/></g><g class="link" style="mix-blend-mode: multiply;"><path d="M10,977.7777777777783C700,977.7777777777783,700,957.8954798241721,1390,957.8954798241721" stroke="#59a14f" stroke-width="1"/></g><g class="link" style="mix-blend-mode: multiply;"><path d="M10,1026.6666666666672C700,1026.6666666666672,700,957.8954798241721,1390,957.8954798241721" stroke="#edc949" stroke-width="1"/></g><g class="link" style="mix-blend-mode: multiply;"><path d="M10,1026.6666666666672C700,1026.6666666666672,700,618.8090206225888,1390,618.8090206225888" stroke="#edc949" stroke-width="1"/></g><g class="link" style="mix-blend-mode: multiply;"><path d="M10,1026.6666666666672C700,1026.6666666666672,700,770.9439289610316,1390,770.9439289610316" stroke="#edc949" stroke-width="1"/></g><g class="link" style="mix-blend-mode: multiply;"><path d="M10,757.7777777777782C700,757.7777777777782,700,618.8090206225888,1390,618.8090206225888" stroke="#af7aa1" stroke-width="1"/></g><g class="link" style="mix-blend-mode: multiply;"><path d="M10,953.3333333333338C700,953.3333333333338,700,618.8090206225888,1390,618.8090206225888" stroke="#ff9da7" stroke-width="1"/></g><g class="link" style="mix-blend-mode: multiply;"><path d="M10,1051.1111111111115C700,1051.1111111111115,700,618.8090206225888,1390,618.8090206225888" stroke="#9c755f" stroke-width="1"/></g><g class="link" style="mix-blend-mode: multiply;"><path d="M10,782.2222222222226C700,782.2222222222226,700,770.9439289610316,1390,770.9439289610316" stroke="#bab0ab" stroke-width="1"/></g><g class="link" style="mix-blend-mode: multiply;"><path d="M10,782.2222222222226C700,782.2222222222226,700,618.8090206225888,1390,618.8090206225888" stroke="#bab0ab" stroke-width="1"/></g><g class="link" style="mix-blend-mode: multiply;"><path d="M10,855.555555555556C700,855.555555555556,700,770.9439289610316,1390,770.9439289610316" stroke="#4e79a7" stroke-width="1"/></g><g class="link" style="mix-blend-mode: multiply;"><path d="M10,855.555555555556C700,855.555555555556,700,618.8090206225888,1390,618.8090206225888" stroke="#4e79a7" stroke-width="1"/></g><g class="link" style="mix-blend-mode: multiply;"><path d="M10,1148.888888888889C700,1148.888888888889,700,618.8090206225888,1390,618.8090206225888" stroke="#f28e2c" stroke-width="1"/></g><g class="link" style="mix-blend-mode: multiply;"><path d="M10,1124.4444444444446C700,1124.4444444444446,700,957.8954798241721,1390,957.8954798241721" stroke="#e15759" stroke-width="1"/></g><g class="link" style="mix-blend-mode: multiply;"><path d="M10,1124.4444444444446C700,1124.4444444444446,700,618.8090206225888,1390,618.8090206225888" stroke="#e15759" stroke-width="1"/></g><g class="link" style="mix-blend-mode: multiply;"><path d="M10,1222.222222222222C700,1222.222222222222,700,957.8954798241721,1390,957.8954798241721" stroke="#76b7b2" stroke-width="1"/></g><g class="link" style="mix-blend-mode: multiply;"><path d="M10,1222.222222222222C700,1222.222222222222,700,618.8090206225888,1390,618.8090206225888" stroke="#76b7b2" stroke-width="1"/></g><g class="link" style="mix-blend-mode: multiply;"><path d="M10,1173.3333333333333C700,1173.3333333333333,700,618.8090206225888,1390,618.8090206225888" stroke="#59a14f" stroke-width="1"/></g><g class="link" style="mix-blend-mode: multiply;"><path d="M10,1100.0000000000002C700,1100.0000000000002,700,957.8954798241721,1390,957.8954798241721" stroke="#edc949" stroke-width="1"/></g><g class="link" style="mix-blend-mode: multiply;"><path d="M10,1295.555555555555C700,1295.555555555555,700,618.8090206225888,1390,618.8090206225888" stroke="#af7aa1" stroke-width="1"/></g><g class="link" style="mix-blend-mode: multiply;"><path d="M10,831.1111111111115C700,831.1111111111115,700,770.9439289610316,1390,770.9439289610316" stroke="#ff9da7" stroke-width="1"/></g><g class="link" style="mix-blend-mode: multiply;"><path d="M10,1319.9999999999993C700,1319.9999999999993,700,618.8090206225888,1390,618.8090206225888" stroke="#9c755f" stroke-width="1"/></g></g></svg>